<?xml version="1.0" encoding="UTF-8" standalone="no"?> <!-- Generator: Adobe Illustrator 15.0.0, SVG Export Plug-In . SVG Version: 6.00 Build 0) -->  <svg  xmlns:dc="http://purl.org/dc/elements/1.1/"  xmlns:cc="http://creativecommons.org/ns#"  xmlns:rdf="http://www.w3.org/1999/02/22-rdf-syntax-ns#"  xmlns:svg="http://www.w3.org/2000/svg"  xmlns="http://www.w3.org/2000/svg"  xmlns:xlink="http://www.w3.org/1999/xlink"  xmlns:sodipodi="http://sodipodi.sourceforge.net/DTD/sodipodi-0.dtd"  xmlns:inkscape="http://www.inkscape.org/namespaces/inkscape"  version="1.1"  x="0px"  y="0px"  width="201.621"  height="69.399002"  viewBox="0 0 201.621 69.399002"  enable-background="new 0 0 801 346"  xml:space="preserve"  id="svg85114"  inkscape:version="0.48.1 r9760"  sodipodi:docname="js_of_ocaml.svg">
<metadata  id="metadata126035">
<rdf:RDF>
<cc:Work  rdf:about="">
<dc:format>image/svg+xml</dc:format>
<dc:type  rdf:resource="http://purl.org/dc/dcmitype/StillImage" />
<dc:title>
</dc:title>
</cc:Work>
</rdf:RDF>
</metadata>
<defs  id="defs126033">
<linearGradient  inkscape:collect="always"  xlink:href="#SVGID_1656_"  id="linearGradient133133"  gradientUnits="userSpaceOnUse"  x1="612.56451"  y1="185.12891"  x2="402.5592"  y2="221.1299" />
<linearGradient  inkscape:collect="always"  xlink:href="#SVGID_1657_"  id="linearGradient133135"  gradientUnits="userSpaceOnUse"  x1="610.85162"  y1="175.4014"  x2="401.09131"  y2="211.36031" />
<linearGradient  inkscape:collect="always"  xlink:href="#SVGID_1658_"  id="linearGradient133137"  gradientUnits="userSpaceOnUse"  x1="608.86133"  y1="163.2261"  x2="398.84189"  y2="199.22951" />
</defs>
<sodipodi:namedview  pagecolor="#ffffff"  bordercolor="#666666"  borderopacity="1"  objecttolerance="10"  gridtolerance="10"  guidetolerance="10"  inkscape:pageopacity="0"  inkscape:pageshadow="2"  inkscape:window-width="1280"  inkscape:window-height="781"  id="namedview126031"  showgrid="false"  inkscape:zoom="0.64169788"  inkscape:cx="-221.777"  inkscape:cy="-74.096413"  inkscape:window-x="0"  inkscape:window-y="19"  inkscape:window-maximized="0"  inkscape:current-layer="svg85114"  fit-margin-top="0"  fit-margin-left="0"  fit-margin-right="0"  fit-margin-bottom="0" />
<g  id="Texte_1_"  display="inline"  style="display:inline"  transform="translate(-376.607,-143.488)">
<g  id="Lwt">
<linearGradient  id="SVGID_1656_"  gradientUnits="userSpaceOnUse"  x1="612.56451"  y1="185.12891"  x2="402.5592"  y2="221.1299">
<stop  offset="0"  style="stop-color:#F79323"  id="stop112473" />
<stop  offset="0.1431"  style="stop-color:#F28E25"  id="stop112475" />
<stop  offset="0.3406"  style="stop-color:#E87F28"  id="stop112477" />
<stop  offset="0.5699"  style="stop-color:#DB672C"  id="stop112479" />
<stop  offset="0.8211"  style="stop-color:#CA442E"  id="stop112481" />
<stop  offset="1"  style="stop-color:#BE202F"  id="stop112483" />
</linearGradient>
<path  d="m 549.759,175.695 h 5.02 v 7.254 h 13.635 v 5.02 h -13.635 v 6.261 c 0,7.492 6.068,13.637 13.709,13.637 v 5.02 c -10.488,0 -18.729,-8.317 -18.729,-18.656 v -18.536 z"  id="path112485"  inkscape:connector-curvature="0"  style="fill:url(#linearGradient133133)" />
<linearGradient  id="SVGID_1657_"  gradientUnits="userSpaceOnUse"  x1="610.85162"  y1="175.4014"  x2="401.09131"  y2="211.36031">
<stop  offset="0"  style="stop-color:#F79323"  id="stop112488" />
<stop  offset="0.1431"  style="stop-color:#F28E25"  id="stop112490" />
<stop  offset="0.3406"  style="stop-color:#E87F28"  id="stop112492" />
<stop  offset="0.5699"  style="stop-color:#DB672C"  id="stop112494" />
<stop  offset="0.8211"  style="stop-color:#CA442E"  id="stop112496" />
<stop  offset="1"  style="stop-color:#BE202F"  id="stop112498" />
</linearGradient>
<path  d="m 474.216,175.695 h 5.02 v 18.385 c 0,7.641 6.145,13.786 13.785,13.786 7.568,0 13.785,-6.219 13.785,-13.861 v -18.31 h 5.047 l -0.025,18.909 c 0.299,7.341 6.293,13.262 13.785,13.262 7.566,0 13.785,-6.219 13.785,-13.861 v -18.31 h 5.02 v 18.31 c 0,10.638 -8.766,18.881 -18.881,18.881 -7.117,0 -13.111,-3.746 -16.332,-9.366 -3.297,5.694 -9.516,9.366 -16.258,9.366 -10.639,0 -18.73,-8.317 -18.73,-18.881 v -18.31 z"  id="path112500"  inkscape:connector-curvature="0"  style="fill:url(#linearGradient133135)" />
<linearGradient  id="SVGID_1658_"  gradientUnits="userSpaceOnUse"  x1="608.86133"  y1="163.2261"  x2="398.84189"  y2="199.22951">
<stop  offset="0"  style="stop-color:#F79323"  id="stop112503" />
<stop  offset="0.1431"  style="stop-color:#F28E25"  id="stop112505" />
<stop  offset="0.3406"  style="stop-color:#E87F28"  id="stop112507" />
<stop  offset="0.5699"  style="stop-color:#DB672C"  id="stop112509" />
<stop  offset="0.8211"  style="stop-color:#CA442E"  id="stop112511" />
<stop  offset="1"  style="stop-color:#BE202F"  id="stop112513" />
</linearGradient>
<path  d="m 454.376,163.32 h 5.02 v 30.909 c 0,7.492 6.07,13.637 13.711,13.637 v 5.02 c -10.488,0 -18.73,-8.317 -18.73,-18.656 v -30.91 z"  id="path112515"  inkscape:connector-curvature="0"  style="fill:url(#linearGradient133137)" />
</g>
<g  id="Fresh_air_in_web_programming_1_">
<path  d="m 464.158,165.301 h -0.695 l 0.096,-0.515 h 0.693 c 0.133,-0.622 0.375,-1.669 2.029,-1.685 l -0.098,0.531 c -1.162,0 -1.281,0.736 -1.357,1.153 h 1.145 l -0.096,0.515 h -1.145 l -0.732,3.959 h -0.572 l 0.732,-3.958 z"  id="path112518"  inkscape:connector-curvature="0"  style="fill:#7c8081" />
<path  d="m 466.5,164.786 h 0.572 l -0.119,0.646 h 0.016 c 0.387,-0.629 0.912,-0.728 1.4,-0.76 l -0.111,0.604 c -0.406,0.033 -0.777,0.181 -1.047,0.442 -0.242,0.245 -0.416,0.564 -0.482,0.924 l -0.482,2.617 h -0.572 l 0.825,-4.473 z"  id="path112520"  inkscape:connector-curvature="0"  style="fill:#7c8081" />
<path  d="m 468.844,167.231 c -0.121,0.875 0.561,1.619 1.436,1.619 0.82,-0.017 1.49,-0.499 1.797,-1.055 h 0.605 c -0.475,0.892 -1.459,1.57 -2.49,1.57 -1.252,0 -2.143,-1.015 -1.898,-2.339 0.234,-1.268 1.453,-2.331 2.758,-2.355 0.98,0.008 1.568,0.589 1.783,1.145 0.215,0.482 0.188,0.981 0.082,1.415 h -4.073 z m 3.588,-0.515 c 0.014,-1.055 -0.756,-1.529 -1.469,-1.529 -0.703,0 -1.666,0.475 -2.023,1.529 h 3.492 z"  id="path112522"  inkscape:connector-curvature="0"  style="fill:#7c8081" />
<path  d="m 473.895,167.935 c -0.141,0.851 0.428,0.916 0.633,0.916 0.539,0 0.893,-0.318 0.98,-0.802 0.113,-0.613 -0.416,-0.752 -0.727,-0.891 -0.428,-0.156 -1.111,-0.401 -0.955,-1.243 0.115,-0.63 0.68,-1.243 1.506,-1.243 0.67,0 1.131,0.515 0.992,1.219 h -0.572 c 0.061,-0.549 -0.287,-0.704 -0.541,-0.704 -0.457,0 -0.746,0.368 -0.803,0.671 -0.088,0.475 0.357,0.638 0.664,0.744 0.492,0.172 1.191,0.458 1.021,1.383 -0.135,0.769 -0.713,1.382 -1.662,1.382 -0.621,0 -1.32,-0.426 -1.109,-1.432 h 0.573 z"  id="path112524"  inkscape:connector-curvature="0"  style="fill:#7c8081" />
<path  d="m 477.676,163.207 h 0.572 l -0.396,2.151 h 0.016 c 0.223,-0.27 0.74,-0.687 1.502,-0.687 0.547,0 0.98,0.139 1.313,0.548 0.275,0.327 0.4,0.842 0.266,1.578 l -0.455,2.462 h -0.572 l 0.455,-2.462 c 0.107,-0.581 0.002,-0.989 -0.199,-1.227 -0.256,-0.303 -0.648,-0.385 -0.902,-0.385 -0.254,0 -0.678,0.082 -1.045,0.385 -0.289,0.237 -0.545,0.646 -0.643,1.227 l -0.455,2.462 h -0.572 l 1.115,-6.052 z"  id="path112526"  inkscape:connector-curvature="0"  style="fill:#7c8081" />
<path  d="m 488.379,169.26 h -0.574 l 0.146,-0.785 h -0.018 c -0.627,0.736 -1.439,0.892 -1.906,0.892 -1.406,0 -2.207,-1.071 -1.969,-2.355 0.221,-1.194 1.371,-2.339 2.836,-2.339 0.482,0 1.238,0.155 1.576,0.899 h 0.016 l 0.146,-0.785 h 0.572 l -0.825,4.473 z m -2.256,-0.409 c 0.965,0 1.934,-0.776 2.127,-1.823 0.182,-0.981 -0.42,-1.841 -1.451,-1.841 -0.98,0 -1.963,0.712 -2.174,1.849 -0.184,0.997 0.402,1.815 1.498,1.815 z"  id="path112528"  inkscape:connector-curvature="0"  style="fill:#7c8081" />
<path  d="m 490.238,164.786 h 0.572 l -0.826,4.474 h -0.572 l 0.826,-4.474 z m 0.291,-1.579 h 0.572 l -0.189,1.031 h -0.572 l 0.189,-1.031 z"  id="path112530"  inkscape:connector-curvature="0"  style="fill:#7c8081" />
<path  d="m 491.873,164.786 h 0.572 l -0.119,0.646 h 0.016 c 0.387,-0.629 0.912,-0.728 1.4,-0.76 l -0.111,0.604 c -0.408,0.033 -0.777,0.181 -1.047,0.442 -0.242,0.245 -0.416,0.564 -0.482,0.924 l -0.482,2.617 h -0.572 l 0.825,-4.473 z"  id="path112532"  inkscape:connector-curvature="0"  style="fill:#7c8081" />
<path  d="m 496.596,164.786 h 0.572 l -0.826,4.474 h -0.572 l 0.826,-4.474 z m 0.291,-1.579 h 0.572 l -0.189,1.031 h -0.572 l 0.189,-1.031 z"  id="path112534"  inkscape:connector-curvature="0"  style="fill:#7c8081" />
<path  d="m 498.23,164.786 h 0.572 l -0.105,0.572 h 0.016 c 0.221,-0.27 0.74,-0.687 1.5,-0.687 0.549,0 0.98,0.139 1.314,0.548 0.275,0.327 0.4,0.842 0.266,1.578 l -0.455,2.462 h -0.572 l 0.453,-2.462 c 0.107,-0.581 0.004,-0.989 -0.197,-1.227 -0.256,-0.303 -0.648,-0.385 -0.902,-0.385 -0.254,0 -0.678,0.082 -1.045,0.385 -0.289,0.237 -0.545,0.646 -0.645,1.227 l -0.453,2.462 h -0.572 l 0.825,-4.473 z"  id="path112536"  inkscape:connector-curvature="0"  style="fill:#7c8081" />
<path  d="m 505.053,164.786 h 0.596 l 0.715,3.746 h 0.018 l 1.613,-3.206 h 0.5 l 0.438,3.206 h 0.018 l 2.115,-3.746 h 0.588 l -2.535,4.474 h -0.646 l -0.398,-2.977 h -0.018 l -1.48,2.977 h -0.646 l -0.878,-4.474 z"  id="path112538"  inkscape:connector-curvature="0"  style="fill:#7c8081" />
<path  d="m 512.023,167.231 c -0.121,0.875 0.559,1.619 1.434,1.619 0.822,-0.017 1.492,-0.499 1.799,-1.055 h 0.605 c -0.477,0.892 -1.461,1.57 -2.49,1.57 -1.252,0 -2.145,-1.015 -1.898,-2.339 0.232,-1.268 1.451,-2.331 2.758,-2.355 0.979,0.008 1.566,0.589 1.783,1.145 0.213,0.482 0.188,0.981 0.082,1.415 h -4.073 z m 3.586,-0.515 c 0.016,-1.055 -0.756,-1.529 -1.467,-1.529 -0.703,0 -1.666,0.475 -2.025,1.529 h 3.492 z"  id="path112540"  inkscape:connector-curvature="0"  style="fill:#7c8081" />
<path  d="m 517.732,163.207 h 0.572 l -0.436,2.364 h 0.016 c 0.643,-0.728 1.426,-0.899 1.908,-0.899 1.465,0 2.193,1.145 1.973,2.339 -0.236,1.284 -1.432,2.355 -2.84,2.355 -0.465,0 -1.213,-0.164 -1.576,-0.892 h -0.018 l -0.145,0.785 h -0.572 l 1.118,-6.052 z m 1.967,1.98 c -1.031,0 -1.951,0.859 -2.131,1.841 -0.193,1.047 0.488,1.823 1.453,1.823 1.096,0 1.982,-0.817 2.168,-1.815 0.209,-1.138 -0.509,-1.849 -1.49,-1.849 z"  id="path112542"  inkscape:connector-curvature="0"  style="fill:#7c8081" />
<path  d="m 525.246,164.786 h 0.572 l -0.145,0.785 h 0.016 c 0.65,-0.736 1.426,-0.899 1.908,-0.899 1.465,0 2.193,1.145 1.973,2.339 -0.236,1.284 -1.434,2.355 -2.84,2.355 -0.467,0 -1.213,-0.164 -1.576,-0.892 h -0.018 l -0.436,2.355 h -0.572 l 1.118,-6.043 z m 2.256,0.401 c -1.029,0 -1.949,0.859 -2.131,1.841 -0.193,1.047 0.49,1.823 1.455,1.823 1.096,0 1.982,-0.817 2.168,-1.815 0.209,-1.138 -0.51,-1.849 -1.492,-1.849 z"  id="path112544"  inkscape:connector-curvature="0"  style="fill:#7c8081" />
<path  d="m 530.826,164.786 h 0.572 l -0.119,0.646 h 0.016 c 0.387,-0.629 0.912,-0.728 1.4,-0.76 l -0.111,0.604 c -0.406,0.033 -0.777,0.181 -1.047,0.442 -0.242,0.245 -0.414,0.564 -0.48,0.924 l -0.484,2.617 H 530 l 0.826,-4.473 z"  id="path112546"  inkscape:connector-curvature="0"  style="fill:#7c8081" />
<path  d="m 535.289,164.672 c 1.324,0 2.141,1.12 1.914,2.347 -0.225,1.219 -1.439,2.348 -2.781,2.348 -1.309,0 -2.127,-1.104 -1.904,-2.314 0.261,-1.416 1.593,-2.381 2.771,-2.381 z m -0.764,4.179 c 0.867,0 1.893,-0.687 2.109,-1.856 0.217,-1.178 -0.664,-1.808 -1.434,-1.808 -0.816,0 -1.889,0.671 -2.109,1.856 -0.191,1.039 0.511,1.808 1.434,1.808 z"  id="path112548"  inkscape:connector-curvature="0"  style="fill:#7c8081" />
<path  d="m 542.205,168.557 c -0.09,0.482 -0.201,1.088 -0.711,1.636 -0.709,0.785 -1.748,0.826 -1.928,0.826 -0.639,0 -1.836,-0.246 -1.986,-1.645 h 0.605 c 0.078,0.368 0.381,1.129 1.469,1.129 0.752,0 1.699,-0.434 1.926,-1.669 l 0.074,-0.393 h -0.018 c -0.453,0.639 -1.242,0.925 -1.896,0.925 -1.178,0 -2.17,-0.916 -1.91,-2.323 0.264,-1.423 1.6,-2.371 2.777,-2.371 0.41,0 1.188,0.122 1.557,0.916 h 0.018 l 0.146,-0.802 h 0.572 l -0.695,3.771 z m -2.369,0.294 c 1.186,0 1.971,-1.063 2.111,-1.823 0.182,-0.981 -0.428,-1.841 -1.436,-1.841 -1.014,0 -1.924,0.859 -2.105,1.841 -0.179,0.972 0.416,1.823 1.43,1.823 z"  id="path112550"  inkscape:connector-curvature="0"  style="fill:#7c8081" />
<path  d="m 543.977,164.786 h 0.572 l -0.119,0.646 h 0.016 c 0.387,-0.629 0.912,-0.728 1.4,-0.76 l -0.111,0.604 c -0.406,0.033 -0.777,0.181 -1.047,0.442 -0.242,0.245 -0.414,0.564 -0.48,0.924 l -0.484,2.617 h -0.572 l 0.825,-4.473 z"  id="path112552"  inkscape:connector-curvature="0"  style="fill:#7c8081" />
<path  d="m 549.996,169.26 h -0.572 l 0.145,-0.785 h -0.018 c -0.625,0.736 -1.439,0.892 -1.906,0.892 -1.406,0 -2.207,-1.071 -1.969,-2.355 0.221,-1.194 1.373,-2.339 2.836,-2.339 0.482,0 1.24,0.155 1.576,0.899 h 0.016 l 0.146,-0.785 h 0.572 l -0.826,4.473 z m -2.256,-0.409 c 0.965,0 1.934,-0.776 2.127,-1.823 0.182,-0.981 -0.42,-1.841 -1.451,-1.841 -0.98,0 -1.963,0.712 -2.172,1.849 -0.185,0.997 0.401,1.815 1.496,1.815 z"  id="path112554"  inkscape:connector-curvature="0"  style="fill:#7c8081" />
<path  d="m 551.863,164.786 h 0.572 l -0.094,0.515 -0.014,-0.016 -0.004,0.016 h 0.018 c 0.334,-0.441 0.918,-0.629 1.334,-0.629 0.377,0 1.139,0.172 1.346,0.858 0.463,-0.687 1.287,-0.858 1.664,-0.858 0.688,0 1.715,0.408 1.436,1.93 l -0.492,2.658 h -0.572 l 0.479,-2.593 c 0.092,-0.49 0.045,-0.728 -0.031,-0.933 -0.129,-0.318 -0.432,-0.548 -0.914,-0.548 -0.482,0 -0.867,0.229 -1.115,0.548 -0.152,0.205 -0.285,0.442 -0.377,0.933 l -0.479,2.593 h -0.572 l 0.479,-2.593 c 0.092,-0.49 0.045,-0.728 -0.031,-0.933 -0.129,-0.318 -0.432,-0.548 -0.914,-0.548 -0.482,0 -0.867,0.229 -1.115,0.548 -0.152,0.205 -0.285,0.442 -0.377,0.933 l -0.479,2.593 h -0.572 l 0.824,-4.474 z"  id="path112556"  inkscape:connector-curvature="0"  style="fill:#7c8081" />
<path  d="m 559.527,164.786 h 0.572 l -0.094,0.515 -0.014,-0.016 -0.004,0.016 h 0.018 c 0.334,-0.441 0.918,-0.629 1.334,-0.629 0.377,0 1.139,0.172 1.346,0.858 0.463,-0.687 1.287,-0.858 1.664,-0.858 0.688,0 1.715,0.408 1.436,1.93 l -0.492,2.658 h -0.572 l 0.479,-2.593 c 0.092,-0.49 0.045,-0.728 -0.031,-0.933 -0.129,-0.318 -0.432,-0.548 -0.914,-0.548 -0.482,0 -0.867,0.229 -1.115,0.548 -0.152,0.205 -0.285,0.442 -0.377,0.933 l -0.479,2.593 h -0.572 l 0.479,-2.593 c 0.092,-0.49 0.045,-0.728 -0.031,-0.933 -0.129,-0.318 -0.432,-0.548 -0.914,-0.548 -0.482,0 -0.867,0.229 -1.115,0.548 -0.152,0.205 -0.285,0.442 -0.377,0.933 l -0.479,2.593 h -0.572 l 0.824,-4.474 z"  id="path112558"  inkscape:connector-curvature="0"  style="fill:#7c8081" />
<path  d="m 567.186,164.786 h 0.572 l -0.826,4.474 h -0.574 l 0.828,-4.474 z m 0.291,-1.579 h 0.572 l -0.191,1.031 h -0.572 l 0.191,-1.031 z"  id="path112560"  inkscape:connector-curvature="0"  style="fill:#7c8081" />
<path  d="m 568.82,164.786 h 0.572 l -0.107,0.572 h 0.018 c 0.221,-0.27 0.74,-0.687 1.5,-0.687 0.549,0 0.98,0.139 1.314,0.548 0.275,0.327 0.4,0.842 0.264,1.578 l -0.453,2.462 h -0.572 l 0.453,-2.462 c 0.107,-0.581 0.004,-0.989 -0.197,-1.227 -0.256,-0.303 -0.65,-0.385 -0.902,-0.385 -0.254,0 -0.678,0.082 -1.045,0.385 -0.289,0.237 -0.545,0.646 -0.645,1.227 l -0.453,2.462 h -0.574 l 0.827,-4.473 z"  id="path112562"  inkscape:connector-curvature="0"  style="fill:#7c8081" />
<path  d="m 577.531,168.557 c -0.088,0.482 -0.199,1.088 -0.711,1.636 -0.709,0.785 -1.746,0.826 -1.926,0.826 -0.639,0 -1.836,-0.246 -1.988,-1.645 h 0.605 c 0.08,0.368 0.381,1.129 1.469,1.129 0.752,0 1.699,-0.434 1.928,-1.669 l 0.072,-0.393 h -0.016 c -0.453,0.639 -1.242,0.925 -1.896,0.925 -1.178,0 -2.17,-0.916 -1.91,-2.323 0.262,-1.423 1.6,-2.371 2.777,-2.371 0.408,0 1.188,0.122 1.557,0.916 h 0.016 l 0.148,-0.802 h 0.572 l -0.697,3.771 z m -2.369,0.294 c 1.188,0 1.973,-1.063 2.113,-1.823 0.18,-0.981 -0.43,-1.841 -1.436,-1.841 -1.014,0 -1.926,0.859 -2.107,1.841 -0.179,0.972 0.416,1.823 1.43,1.823 z"  id="path112564"  inkscape:connector-curvature="0"  style="fill:#7c8081" />
</g>
<g  id="Ocsigen_2_">
<path  d="m 477.613,144.212 c -2.559,0 -4.771,1.037 -6.328,2.697 v -2.456 h -2.316 v 17.15 h 2.316 v -8.921 c 0.139,-3.423 2.904,-6.154 6.361,-6.154 3.492,0 6.363,2.87 6.363,6.396 v 8.679 h 2.316 v -8.679 c 0.001,-4.909 -4.046,-8.712 -8.712,-8.712 z"  id="path112567"  inkscape:connector-curvature="0"  style="fill:#7c8081" />
<path  d="m 452.084,146.866 c -3.389,3.409 -3.396,8.813 0.037,12.225 2.018,2.005 4.705,2.825 7.268,2.492 v -2.327 c -1.971,0.341 -4.074,-0.258 -5.609,-1.784 -0.955,-0.95 -1.547,-2.122 -1.77,-3.319 l 14.84,-0.07 c 0.309,-2.616 -0.531,-5.353 -2.492,-7.303 -3.483,-3.461 -8.838,-3.372 -12.274,0.086 z m -0.082,4.94 c 0.217,-1.199 0.799,-2.374 1.75,-3.331 2.486,-2.501 6.496,-2.514 8.996,-0.027 0.957,0.95 1.547,2.122 1.771,3.319 l -12.517,0.039 z"  id="path112569"  inkscape:connector-curvature="0"  style="fill:#7c8081" />
<path  d="m 438.721,144.315 c -4.909,0 -8.644,3.838 -8.644,8.713 0,4.806 3.804,8.644 8.644,8.644 2.559,0 4.807,-1.037 6.398,-2.731 v 0.067 c 0,3.526 -2.802,6.327 -6.329,6.327 v 2.316 c 4.841,0 8.643,-3.838 8.643,-8.644 v -6.014 c -0.033,-4.874 -4.078,-8.678 -8.712,-8.678 z m 6.398,8.956 c -0.139,3.388 -2.975,6.085 -6.363,6.085 -3.526,0 -6.362,-2.835 -6.362,-6.361 0,-3.492 2.836,-6.362 6.362,-6.362 3.492,0 6.363,2.87 6.363,6.362 v 0.276 z"  id="path112571"  inkscape:connector-curvature="0"  style="fill:#7c8081" />
<g  id="g112573">
<rect  x="425.61401"  y="149.321"  width="2.316"  height="12.282"  id="rect112575"  style="fill:#7c8081" />
<path  d="m 426.754,143.488 c -1.037,0 -1.971,0.899 -1.971,2.006 0,1.107 0.934,1.971 1.971,1.971 1.107,0 2.006,-0.864 2.006,-1.971 0,-1.107 -0.898,-2.006 -2.006,-2.006 z"  id="path112577"  inkscape:connector-curvature="0"  style="fill:#f05b2a" />
</g>
<path  d="m 414.792,152.925 c 0,2.784 -1.783,5.146 -4.291,5.99 l -0.088,-0.087 v 0.119 c -0.612,0.196 -1.266,0.305 -1.948,0.305 v 2.316 c 0.673,0 1.323,-0.081 1.948,-0.222 3.873,-0.871 6.695,-4.284 6.695,-8.422 0,-3.172 2.313,-5.794 5.379,-6.25 v -2.342 c -4.38,0.466 -7.695,4.106 -7.695,8.593 z"  id="path112579"  inkscape:connector-curvature="0"  style="fill:#7c8081" />
<path  d="m 399.981,157.385 c -2.49,-2.489 -2.49,-6.534 0,-8.989 2.488,-2.489 6.5,-2.489 8.988,0 l 0.035,0.034 1.625,-1.659 c -3.285,-3.284 -8.852,-3.458 -12.309,0 -3.389,3.423 -3.389,8.816 0.034,12.274 2.036,2.035 4.769,2.839 7.369,2.449 v -2.366 c -2.017,0.401 -4.201,-0.179 -5.742,-1.743 z"  id="path112581"  inkscape:connector-curvature="0"  style="fill:#7c8081" />
<path  d="m 385.251,144.351 c -4.909,0 -8.644,3.837 -8.644,8.713 0,4.806 3.803,8.644 8.644,8.644 4.875,0 8.713,-3.838 8.713,-8.644 0,-4.911 -4.046,-8.713 -8.713,-8.713 z m 0.035,15.04 c -3.492,0 -6.361,-2.87 -6.361,-6.362 0,-3.526 2.869,-6.362 6.361,-6.362 3.527,0 6.362,2.836 6.362,6.362 0,3.492 -2.835,6.362 -6.362,6.362 z"  id="path112583"  inkscape:connector-curvature="0"  style="fill:#7c8081" />
</g>
</g>
</svg>