<?xml version="1.0" encoding="UTF-8" standalone="no"?> <!-- Generator: Adobe Illustrator 15.0.0, SVG Export Plug-In . SVG Version: 6.00 Build 0) -->  <svg  xmlns:dc="http://purl.org/dc/elements/1.1/"  xmlns:cc="http://creativecommons.org/ns#"  xmlns:rdf="http://www.w3.org/1999/02/22-rdf-syntax-ns#"  xmlns:svg="http://www.w3.org/2000/svg"  xmlns="http://www.w3.org/2000/svg"  xmlns:xlink="http://www.w3.org/1999/xlink"  xmlns:sodipodi="http://sodipodi.sourceforge.net/DTD/sodipodi-0.dtd"  xmlns:inkscape="http://www.inkscape.org/namespaces/inkscape"  version="1.1"  x="0px"  y="0px"  width="354.185"  height="69.396523"  viewBox="0 0 354.185 69.396523"  enable-background="new 0 0 801 346"  xml:space="preserve"  id="svg85114"  inkscape:version="0.48.1 r9760"  sodipodi:docname="tyxml.svg">
<metadata  id="metadata126035">
<rdf:RDF>
<cc:Work  rdf:about="">
<dc:format>image/svg+xml</dc:format>
<dc:type  rdf:resource="http://purl.org/dc/dcmitype/StillImage" />
<dc:title>
</dc:title>
</cc:Work>
</rdf:RDF>
</metadata>
<defs  id="defs126033">
<linearGradient  inkscape:collect="always"  xlink:href="#SVGID_1244_"  id="linearGradient126807"  gradientUnits="userSpaceOnUse"  x1="730.69141"  y1="188.1396"  x2="411.27151"  y2="188.13969" />
<linearGradient  inkscape:collect="always"  xlink:href="#SVGID_1245_"  id="linearGradient126809"  gradientUnits="userSpaceOnUse"  x1="730.69141"  y1="188.1396"  x2="411.27151"  y2="188.13969" />
<linearGradient  inkscape:collect="always"  xlink:href="#SVGID_1246_"  id="linearGradient126811"  gradientUnits="userSpaceOnUse"  x1="730.69141"  y1="188.1396"  x2="411.27151"  y2="188.13969" />
<linearGradient  inkscape:collect="always"  xlink:href="#SVGID_1247_"  id="linearGradient126813"  gradientUnits="userSpaceOnUse"  x1="730.69141"  y1="188.1396"  x2="411.27151"  y2="188.13969" />
<linearGradient  inkscape:collect="always"  xlink:href="#SVGID_1248_"  id="linearGradient126815"  gradientUnits="userSpaceOnUse"  x1="730.69141"  y1="188.1396"  x2="411.27151"  y2="188.13969" />
<linearGradient  inkscape:collect="always"  xlink:href="#SVGID_1249_"  id="linearGradient126817"  gradientUnits="userSpaceOnUse"  x1="730.69141"  y1="188.1396"  x2="411.27151"  y2="188.13969" />
<linearGradient  inkscape:collect="always"  xlink:href="#SVGID_1250_"  id="linearGradient126819"  gradientUnits="userSpaceOnUse"  x1="730.69141"  y1="188.1396"  x2="411.27151"  y2="188.13969" />
<linearGradient  inkscape:collect="always"  xlink:href="#SVGID_1251_"  id="linearGradient126821"  gradientUnits="userSpaceOnUse"  x1="730.69141"  y1="188.1396"  x2="411.27151"  y2="188.13969" />
</defs>
<sodipodi:namedview  pagecolor="#ffffff"  bordercolor="#666666"  borderopacity="1"  objecttolerance="10"  gridtolerance="10"  guidetolerance="10"  inkscape:pageopacity="0"  inkscape:pageshadow="2"  inkscape:window-width="1280"  inkscape:window-height="781"  id="namedview126031"  showgrid="false"  inkscape:zoom="0.64169788"  inkscape:cx="213.58753"  inkscape:cy="-199.93648"  inkscape:window-x="0"  inkscape:window-y="19"  inkscape:window-maximized="0"  inkscape:current-layer="svg85114"  fit-margin-top="0"  fit-margin-left="0"  fit-margin-right="0"  fit-margin-bottom="0" />
<g  id="Texte_5_"  display="inline"  style="display:inline"  transform="translate(-376.505,-143.563)">
<g  id="OBrowser__x28_bleu_x29_">
<g  id="g105660">
<path  d="m 725.482,174.218 c -10.41,0 -19.434,8.484 -19.434,19.434 v 17.864 h 5.168 v -17.864 c 0,-7.865 6.4,-14.266 14.189,-14.266 1.875,0 3.654,0.365 5.285,1.02 v -5.482 c -1.645,-0.445 -3.379,-0.706 -5.208,-0.706 z"  id="path105662"  inkscape:connector-curvature="0"  style="fill:#7c8081" />
<path  d="m 669.275,180.104 c -7.557,7.574 -7.574,19.577 0.084,27.16 4.5,4.455 10.494,6.276 16.209,5.535 v -5.167 c -4.396,0.755 -9.088,-0.574 -12.512,-3.965 -2.133,-2.111 -3.449,-4.714 -3.949,-7.374 l 33.1,-0.158 c 0.691,-5.812 -1.182,-11.89 -5.559,-16.223 -7.765,-7.69 -19.709,-7.491 -27.373,0.192 z m -0.183,10.973 c 0.482,-2.664 1.783,-5.274 3.902,-7.399 5.545,-5.559 14.488,-5.585 20.066,-0.062 2.135,2.113 3.451,4.716 3.951,7.375 l -27.919,0.086 z"  id="path105664"  inkscape:connector-curvature="0"  style="fill:#7c8081" />
<path  d="m 646.029,193.498 c 0,6.209 -3.977,11.475 -9.572,13.36 l -0.195,0.07 c -1.367,0.437 -2.824,0.68 -4.346,0.68 v 5.167 c 1.5,0 2.951,-0.183 4.346,-0.496 8.639,-1.943 14.934,-9.552 14.934,-18.782 0,-7.787 6.246,-14.112 14.113,-14.112 v -5.168 c -10.797,10e-4 -19.28,8.561 -19.28,19.281 z"  id="path105666"  inkscape:connector-curvature="0"  style="fill:#7c8081" />
<path  d="m 562.23,175.695 h 5.02 v 17.017 c 0,7.643 6.145,13.785 13.785,13.785 7.568,0 13.785,-6.219 13.785,-13.859 l -0.131,-16.942 h 5.021 l 0.131,17.542 c 0.299,7.342 6.293,13.26 13.785,13.26 7.566,0 13.785,-6.219 13.785,-13.859 v -16.942 h 5.02 v 16.942 c 0,10.637 -8.766,18.878 -18.881,18.878 -7.117,0 -13.111,-3.746 -16.332,-9.364 -3.297,5.693 -9.516,9.364 -16.258,9.364 -10.639,0 -18.73,-8.315 -18.73,-18.878 v -16.944 z"  id="path105668"  inkscape:connector-curvature="0"  style="fill:#7c8081" />
<path  d="m 539.547,174.243 c -10.951,0 -19.279,8.559 -19.279,19.432 0,10.719 8.482,19.278 19.279,19.278 10.873,0 19.434,-8.56 19.434,-19.278 -10e-4,-10.949 -9.024,-19.432 -19.434,-19.432 z m 0.076,33.543 c -7.789,0 -14.189,-6.4 -14.189,-14.189 0,-7.863 6.4,-14.188 14.189,-14.188 7.867,0 14.189,6.324 14.189,14.188 10e-4,7.789 -6.322,14.189 -14.189,14.189 z"  id="path105670"  inkscape:connector-curvature="0"  style="fill:#7c8081" />
<path  d="m 515.362,174.167 c -10.41,0 -19.434,8.484 -19.434,19.434 v 17.915 h 5.168 v -17.915 c 0,-7.865 6.4,-14.266 14.189,-14.266 1.875,0 3.654,0.365 5.285,1.02 v -5.482 c -1.645,-0.444 -3.38,-0.706 -5.208,-0.706 z"  id="path105672"  inkscape:connector-curvature="0"  style="fill:#7c8081" />
<path  d="m 453.95,193.759 v 1.004 h 0.059 c 0.725,10.27 9.424,18.117 19.361,18.117 10.949,0 19.279,-8.56 19.279,-19.431 0,-10.717 -8.484,-19.277 -19.279,-19.277 -5.707,0 -10.721,2.313 -14.268,6.092 v -0.148 c -0.047,0.039 -0.09,0.084 -0.133,0.129 V 163.32 h -5.031 l 0.012,16.818 c -0.006,-0.01 -0.01,-0.016 -0.014,-0.023 v 13.41 c 0.001,0.078 0.012,0.154 0.014,0.234 z m 5.154,-0.251 c 0.309,-7.555 6.633,-13.57 14.189,-13.57 7.865,0 14.189,6.324 14.189,14.188 0,7.789 -6.324,14.189 -14.189,14.189 -7.789,0 -14.189,-6.4 -14.189,-14.189 v -0.618 z"  id="path105674"  inkscape:connector-curvature="0"  style="fill:#7c8081" />
<path  d="m 430.55,174.167 c -10.951,0 -19.279,8.559 -19.279,19.434 0,10.719 8.482,19.278 19.279,19.278 10.873,0 19.434,-8.56 19.434,-19.278 0,-10.952 -9.024,-19.434 -19.434,-19.434 z m 0.077,33.544 c -7.789,0 -14.19,-6.4 -14.19,-14.189 0,-7.865 6.401,-14.189 14.19,-14.189 7.866,0 14.189,6.324 14.189,14.189 0,7.789 -6.322,14.189 -14.189,14.189 z"  id="path105676"  inkscape:connector-curvature="0"  style="fill:#7c8081" />
</g>
<g  id="g105678">
<linearGradient  id="SVGID_1244_"  gradientUnits="userSpaceOnUse"  x1="730.69141"  y1="188.1396"  x2="411.27151"  y2="188.13969">
<stop  offset="0"  style="stop-color:#00C1F3"  id="stop105681" />
<stop  offset="0.1268"  style="stop-color:#00BBEF"  id="stop105683" />
<stop  offset="0.302"  style="stop-color:#00AFE7"  id="stop105685" />
<stop  offset="0.5054"  style="stop-color:#009DDA"  id="stop105687" />
<stop  offset="0.73"  style="stop-color:#0085C9"  id="stop105689" />
<stop  offset="0.9694"  style="stop-color:#006AB5"  id="stop105691" />
<stop  offset="1"  style="stop-color:#0066B3"  id="stop105693" />
</linearGradient>
<path  d="m 725.482,174.218 c -10.41,0 -19.434,8.484 -19.434,19.434 v 17.864 h 5.168 v -17.864 c 0,-7.865 6.4,-14.266 14.189,-14.266 1.875,0 3.654,0.365 5.285,1.02 v -5.482 c -1.645,-0.445 -3.379,-0.706 -5.208,-0.706 z"  id="path105695"  inkscape:connector-curvature="0"  style="fill:url(#linearGradient126807)" />
<linearGradient  id="SVGID_1245_"  gradientUnits="userSpaceOnUse"  x1="730.69141"  y1="188.1396"  x2="411.27151"  y2="188.13969">
<stop  offset="0"  style="stop-color:#00C1F3"  id="stop105698" />
<stop  offset="0.1268"  style="stop-color:#00BBEF"  id="stop105700" />
<stop  offset="0.302"  style="stop-color:#00AFE7"  id="stop105702" />
<stop  offset="0.5054"  style="stop-color:#009DDA"  id="stop105704" />
<stop  offset="0.73"  style="stop-color:#0085C9"  id="stop105706" />
<stop  offset="0.9694"  style="stop-color:#006AB5"  id="stop105708" />
<stop  offset="1"  style="stop-color:#0066B3"  id="stop105710" />
</linearGradient>
<path  d="m 669.275,180.104 c -7.557,7.574 -7.574,19.577 0.084,27.16 4.5,4.455 10.494,6.276 16.209,5.535 v -5.167 c -4.396,0.755 -9.088,-0.574 -12.512,-3.965 -2.133,-2.111 -3.449,-4.714 -3.949,-7.374 l 33.1,-0.158 c 0.691,-5.812 -1.182,-11.89 -5.559,-16.223 -7.765,-7.69 -19.709,-7.491 -27.373,0.192 z m -0.183,10.973 c 0.482,-2.664 1.783,-5.274 3.902,-7.399 5.545,-5.559 14.488,-5.585 20.066,-0.062 2.135,2.113 3.451,4.716 3.951,7.375 l -27.919,0.086 z"  id="path105712"  inkscape:connector-curvature="0"  style="fill:url(#linearGradient126809)" />
<linearGradient  id="SVGID_1246_"  gradientUnits="userSpaceOnUse"  x1="730.69141"  y1="188.1396"  x2="411.27151"  y2="188.13969">
<stop  offset="0"  style="stop-color:#00C1F3"  id="stop105715" />
<stop  offset="0.1268"  style="stop-color:#00BBEF"  id="stop105717" />
<stop  offset="0.302"  style="stop-color:#00AFE7"  id="stop105719" />
<stop  offset="0.5054"  style="stop-color:#009DDA"  id="stop105721" />
<stop  offset="0.73"  style="stop-color:#0085C9"  id="stop105723" />
<stop  offset="0.9694"  style="stop-color:#006AB5"  id="stop105725" />
<stop  offset="1"  style="stop-color:#0066B3"  id="stop105727" />
</linearGradient>
<path  d="m 646.029,193.498 c 0,6.209 -3.977,11.475 -9.572,13.36 l -0.195,0.07 c -1.367,0.437 -2.824,0.68 -4.346,0.68 v 5.167 c 1.5,0 2.951,-0.183 4.346,-0.496 8.639,-1.943 14.934,-9.552 14.934,-18.782 0,-7.787 6.246,-14.112 14.113,-14.112 v -5.168 c -10.797,10e-4 -19.28,8.561 -19.28,19.281 z"  id="path105729"  inkscape:connector-curvature="0"  style="fill:url(#linearGradient126811)" />
<linearGradient  id="SVGID_1247_"  gradientUnits="userSpaceOnUse"  x1="730.69141"  y1="188.1396"  x2="411.27151"  y2="188.13969">
<stop  offset="0"  style="stop-color:#00C1F3"  id="stop105732" />
<stop  offset="0.1268"  style="stop-color:#00BBEF"  id="stop105734" />
<stop  offset="0.302"  style="stop-color:#00AFE7"  id="stop105736" />
<stop  offset="0.5054"  style="stop-color:#009DDA"  id="stop105738" />
<stop  offset="0.73"  style="stop-color:#0085C9"  id="stop105740" />
<stop  offset="0.9694"  style="stop-color:#006AB5"  id="stop105742" />
<stop  offset="1"  style="stop-color:#0066B3"  id="stop105744" />
</linearGradient>
<path  d="m 562.23,175.695 h 5.02 v 17.017 c 0,7.643 6.145,13.785 13.785,13.785 7.568,0 13.785,-6.219 13.785,-13.859 l -0.131,-16.942 h 5.021 l 0.131,17.542 c 0.299,7.342 6.293,13.26 13.785,13.26 7.566,0 13.785,-6.219 13.785,-13.859 v -16.942 h 5.02 v 16.942 c 0,10.637 -8.766,18.878 -18.881,18.878 -7.117,0 -13.111,-3.746 -16.332,-9.364 -3.297,5.693 -9.516,9.364 -16.258,9.364 -10.639,0 -18.73,-8.315 -18.73,-18.878 v -16.944 z"  id="path105746"  inkscape:connector-curvature="0"  style="fill:url(#linearGradient126813)" />
<linearGradient  id="SVGID_1248_"  gradientUnits="userSpaceOnUse"  x1="730.69141"  y1="188.1396"  x2="411.27151"  y2="188.13969">
<stop  offset="0"  style="stop-color:#00C1F3"  id="stop105749" />
<stop  offset="0.1268"  style="stop-color:#00BBEF"  id="stop105751" />
<stop  offset="0.302"  style="stop-color:#00AFE7"  id="stop105753" />
<stop  offset="0.5054"  style="stop-color:#009DDA"  id="stop105755" />
<stop  offset="0.73"  style="stop-color:#0085C9"  id="stop105757" />
<stop  offset="0.9694"  style="stop-color:#006AB5"  id="stop105759" />
<stop  offset="1"  style="stop-color:#0066B3"  id="stop105761" />
</linearGradient>
<path  d="m 539.547,174.243 c -10.951,0 -19.279,8.559 -19.279,19.432 0,10.719 8.482,19.278 19.279,19.278 10.873,0 19.434,-8.56 19.434,-19.278 -10e-4,-10.949 -9.024,-19.432 -19.434,-19.432 z m 0.076,33.543 c -7.789,0 -14.189,-6.4 -14.189,-14.189 0,-7.863 6.4,-14.188 14.189,-14.188 7.867,0 14.189,6.324 14.189,14.188 10e-4,7.789 -6.322,14.189 -14.189,14.189 z"  id="path105763"  inkscape:connector-curvature="0"  style="fill:url(#linearGradient126815)" />
<linearGradient  id="SVGID_1249_"  gradientUnits="userSpaceOnUse"  x1="730.69141"  y1="188.1396"  x2="411.27151"  y2="188.13969">
<stop  offset="0"  style="stop-color:#00C1F3"  id="stop105766" />
<stop  offset="0.1268"  style="stop-color:#00BBEF"  id="stop105768" />
<stop  offset="0.302"  style="stop-color:#00AFE7"  id="stop105770" />
<stop  offset="0.5054"  style="stop-color:#009DDA"  id="stop105772" />
<stop  offset="0.73"  style="stop-color:#0085C9"  id="stop105774" />
<stop  offset="0.9694"  style="stop-color:#006AB5"  id="stop105776" />
<stop  offset="1"  style="stop-color:#0066B3"  id="stop105778" />
</linearGradient>
<path  d="m 515.362,174.167 c -10.41,0 -19.434,8.484 -19.434,19.434 v 17.915 h 5.168 v -17.915 c 0,-7.865 6.4,-14.266 14.189,-14.266 1.875,0 3.654,0.365 5.285,1.02 v -5.482 c -1.645,-0.444 -3.38,-0.706 -5.208,-0.706 z"  id="path105780"  inkscape:connector-curvature="0"  style="fill:url(#linearGradient126817)" />
<linearGradient  id="SVGID_1250_"  gradientUnits="userSpaceOnUse"  x1="730.69141"  y1="188.1396"  x2="411.27151"  y2="188.13969">
<stop  offset="0"  style="stop-color:#00C1F3"  id="stop105783" />
<stop  offset="0.1268"  style="stop-color:#00BBEF"  id="stop105785" />
<stop  offset="0.302"  style="stop-color:#00AFE7"  id="stop105787" />
<stop  offset="0.5054"  style="stop-color:#009DDA"  id="stop105789" />
<stop  offset="0.73"  style="stop-color:#0085C9"  id="stop105791" />
<stop  offset="0.9694"  style="stop-color:#006AB5"  id="stop105793" />
<stop  offset="1"  style="stop-color:#0066B3"  id="stop105795" />
</linearGradient>
<path  d="m 453.95,193.759 v 1.004 h 0.059 c 0.725,10.27 9.424,18.117 19.361,18.117 10.949,0 19.279,-8.56 19.279,-19.431 0,-10.717 -8.484,-19.277 -19.279,-19.277 -5.707,0 -10.721,2.313 -14.268,6.092 v -0.148 c -0.047,0.039 -0.09,0.084 -0.133,0.129 V 163.32 h -5.031 l 0.012,16.818 c -0.006,-0.01 -0.01,-0.016 -0.014,-0.023 v 13.41 c 0.001,0.078 0.012,0.154 0.014,0.234 z m 5.154,-0.251 c 0.309,-7.555 6.633,-13.57 14.189,-13.57 7.865,0 14.189,6.324 14.189,14.188 0,7.789 -6.324,14.189 -14.189,14.189 -7.789,0 -14.189,-6.4 -14.189,-14.189 v -0.618 z"  id="path105797"  inkscape:connector-curvature="0"  style="fill:url(#linearGradient126819)" />
<linearGradient  id="SVGID_1251_"  gradientUnits="userSpaceOnUse"  x1="730.69141"  y1="188.1396"  x2="411.27151"  y2="188.13969">
<stop  offset="0"  style="stop-color:#00C1F3"  id="stop105800" />
<stop  offset="0.1268"  style="stop-color:#00BBEF"  id="stop105802" />
<stop  offset="0.302"  style="stop-color:#00AFE7"  id="stop105804" />
<stop  offset="0.5054"  style="stop-color:#009DDA"  id="stop105806" />
<stop  offset="0.73"  style="stop-color:#0085C9"  id="stop105808" />
<stop  offset="0.9694"  style="stop-color:#006AB5"  id="stop105810" />
<stop  offset="1"  style="stop-color:#0066B3"  id="stop105812" />
</linearGradient>
<path  d="m 430.55,174.167 c -10.951,0 -19.279,8.559 -19.279,19.434 0,10.719 8.482,19.278 19.279,19.278 10.873,0 19.434,-8.56 19.434,-19.278 0,-10.952 -9.024,-19.434 -19.434,-19.434 z m 0.077,33.544 c -7.789,0 -14.19,-6.4 -14.19,-14.189 0,-7.865 6.401,-14.189 14.19,-14.189 7.866,0 14.189,6.324 14.189,14.189 0,7.789 -6.322,14.189 -14.189,14.189 z"  id="path105814"  inkscape:connector-curvature="0"  style="fill:url(#linearGradient126821)" />
</g>
</g>
<g  id="Fresh_air_in_web_programming_7_">
<path  d="m 464.056,165.301 h -0.695 l 0.096,-0.515 h 0.694 c 0.132,-0.622 0.374,-1.669 2.028,-1.685 l -0.098,0.531 c -1.161,0 -1.281,0.736 -1.357,1.153 h 1.145 l -0.096,0.515 h -1.145 l -0.731,3.959 h -0.572 l 0.731,-3.958 z"  id="path105817"  inkscape:connector-curvature="0"  style="fill:#7c8081" />
<path  d="m 466.397,164.786 h 0.572 l -0.119,0.646 h 0.017 c 0.386,-0.629 0.911,-0.728 1.399,-0.76 l -0.111,0.604 c -0.406,0.033 -0.777,0.181 -1.047,0.442 -0.241,0.245 -0.415,0.564 -0.481,0.924 l -0.483,2.617 h -0.572 l 0.825,-4.473 z"  id="path105819"  inkscape:connector-curvature="0"  style="fill:#7c8081" />
<path  d="m 468.741,167.231 c -0.121,0.875 0.561,1.619 1.436,1.619 0.82,-0.017 1.49,-0.499 1.797,-1.055 h 0.605 c -0.475,0.892 -1.459,1.57 -2.49,1.57 -1.251,0 -2.143,-1.015 -1.898,-2.339 0.234,-1.268 1.453,-2.331 2.758,-2.355 0.98,0.008 1.568,0.589 1.784,1.145 0.214,0.482 0.187,0.981 0.082,1.415 h -4.074 z m 3.588,-0.515 c 0.015,-1.055 -0.756,-1.529 -1.468,-1.529 -0.704,0 -1.666,0.475 -2.024,1.529 h 3.492 z"  id="path105821"  inkscape:connector-curvature="0"  style="fill:#7c8081" />
<path  d="m 473.792,167.935 c -0.141,0.851 0.428,0.916 0.633,0.916 0.539,0 0.893,-0.318 0.981,-0.802 0.113,-0.613 -0.417,-0.752 -0.727,-0.891 -0.429,-0.156 -1.112,-0.401 -0.956,-1.243 0.116,-0.63 0.68,-1.243 1.506,-1.243 0.67,0 1.131,0.515 0.992,1.219 h -0.572 c 0.061,-0.549 -0.287,-0.704 -0.541,-0.704 -0.457,0 -0.746,0.368 -0.802,0.671 -0.088,0.475 0.356,0.638 0.663,0.744 0.492,0.172 1.191,0.458 1.021,1.383 -0.134,0.769 -0.713,1.382 -1.662,1.382 -0.621,0 -1.32,-0.426 -1.109,-1.432 h 0.573 z"  id="path105823"  inkscape:connector-curvature="0"  style="fill:#7c8081" />
<path  d="m 477.573,163.207 h 0.572 l -0.396,2.151 h 0.016 c 0.223,-0.27 0.74,-0.687 1.502,-0.687 0.547,0 0.98,0.139 1.313,0.548 0.274,0.327 0.4,0.842 0.265,1.578 l -0.455,2.462 h -0.572 l 0.455,-2.462 c 0.107,-0.581 0.002,-0.989 -0.199,-1.227 -0.255,-0.303 -0.648,-0.385 -0.902,-0.385 -0.254,0 -0.678,0.082 -1.044,0.385 -0.29,0.237 -0.545,0.646 -0.644,1.227 l -0.455,2.462 h -0.572 l 1.116,-6.052 z"  id="path105825"  inkscape:connector-curvature="0"  style="fill:#7c8081" />
<path  d="m 488.276,169.26 h -0.573 l 0.146,-0.785 h -0.017 c -0.627,0.736 -1.44,0.892 -1.907,0.892 -1.406,0 -2.206,-1.071 -1.969,-2.355 0.221,-1.194 1.372,-2.339 2.836,-2.339 0.482,0 1.239,0.155 1.576,0.899 h 0.017 l 0.146,-0.785 h 0.572 l -0.827,4.473 z m -2.255,-0.409 c 0.965,0 1.935,-0.776 2.128,-1.823 0.181,-0.981 -0.421,-1.841 -1.451,-1.841 -0.981,0 -1.964,0.712 -2.174,1.849 -0.185,0.997 0.401,1.815 1.497,1.815 z"  id="path105827"  inkscape:connector-curvature="0"  style="fill:#7c8081" />
<path  d="m 490.136,164.786 h 0.572 l -0.826,4.474 h -0.572 l 0.826,-4.474 z m 0.291,-1.579 H 491 l -0.19,1.031 h -0.572 l 0.189,-1.031 z"  id="path105829"  inkscape:connector-curvature="0"  style="fill:#7c8081" />
<path  d="m 491.771,164.786 h 0.572 l -0.119,0.646 h 0.016 c 0.387,-0.629 0.912,-0.728 1.4,-0.76 l -0.111,0.604 c -0.407,0.033 -0.777,0.181 -1.047,0.442 -0.242,0.245 -0.416,0.564 -0.482,0.924 l -0.482,2.617 h -0.572 l 0.825,-4.473 z"  id="path105831"  inkscape:connector-curvature="0"  style="fill:#7c8081" />
<path  d="m 496.493,164.786 h 0.572 l -0.826,4.474 h -0.572 l 0.826,-4.474 z m 0.291,-1.579 h 0.573 l -0.19,1.031 h -0.572 l 0.189,-1.031 z"  id="path105833"  inkscape:connector-curvature="0"  style="fill:#7c8081" />
<path  d="m 498.128,164.786 h 0.572 l -0.105,0.572 h 0.016 c 0.222,-0.27 0.74,-0.687 1.501,-0.687 0.548,0 0.98,0.139 1.313,0.548 0.275,0.327 0.401,0.842 0.266,1.578 l -0.455,2.462 h -0.572 l 0.454,-2.462 c 0.107,-0.581 0.003,-0.989 -0.198,-1.227 -0.256,-0.303 -0.648,-0.385 -0.902,-0.385 -0.254,0 -0.678,0.082 -1.045,0.385 -0.289,0.237 -0.545,0.646 -0.644,1.227 l -0.454,2.462 h -0.572 l 0.825,-4.473 z"  id="path105835"  inkscape:connector-curvature="0"  style="fill:#7c8081" />
<path  d="m 504.95,164.786 h 0.597 l 0.715,3.746 h 0.017 l 1.614,-3.206 h 0.499 l 0.438,3.206 h 0.017 l 2.115,-3.746 h 0.589 l -2.536,4.474 h -0.646 l -0.398,-2.977 h -0.017 l -1.481,2.977 h -0.646 l -0.877,-4.474 z"  id="path105837"  inkscape:connector-curvature="0"  style="fill:#7c8081" />
<path  d="m 511.921,167.231 c -0.121,0.875 0.56,1.619 1.435,1.619 0.821,-0.017 1.491,-0.499 1.798,-1.055 h 0.605 c -0.476,0.892 -1.46,1.57 -2.49,1.57 -1.251,0 -2.144,-1.015 -1.898,-2.339 0.233,-1.268 1.452,-2.331 2.758,-2.355 0.979,0.008 1.567,0.589 1.783,1.145 0.214,0.482 0.188,0.981 0.083,1.415 h -4.074 z m 3.587,-0.515 c 0.016,-1.055 -0.756,-1.529 -1.468,-1.529 -0.703,0 -1.666,0.475 -2.024,1.529 h 3.492 z"  id="path105839"  inkscape:connector-curvature="0"  style="fill:#7c8081" />
<path  d="m 517.631,163.207 h 0.572 l -0.437,2.364 h 0.017 c 0.642,-0.728 1.426,-0.899 1.908,-0.899 1.464,0 2.193,1.145 1.973,2.339 -0.237,1.284 -1.433,2.355 -2.84,2.355 -0.466,0 -1.213,-0.164 -1.577,-0.892 h -0.017 l -0.145,0.785 h -0.573 l 1.119,-6.052 z m 1.966,1.98 c -1.031,0 -1.95,0.859 -2.131,1.841 -0.193,1.047 0.488,1.823 1.454,1.823 1.096,0 1.982,-0.817 2.167,-1.815 0.21,-1.138 -0.509,-1.849 -1.49,-1.849 z"  id="path105841"  inkscape:connector-curvature="0"  style="fill:#7c8081" />
<path  d="m 525.144,164.786 h 0.572 l -0.145,0.785 h 0.017 c 0.65,-0.736 1.426,-0.899 1.908,-0.899 1.464,0 2.192,1.145 1.973,2.339 -0.237,1.284 -1.434,2.355 -2.84,2.355 -0.467,0 -1.213,-0.164 -1.577,-0.892 h -0.017 l -0.436,2.355 h -0.572 l 1.117,-6.043 z m 2.256,0.401 c -1.03,0 -1.949,0.859 -2.131,1.841 -0.193,1.047 0.489,1.823 1.454,1.823 1.096,0 1.983,-0.817 2.168,-1.815 0.211,-1.138 -0.509,-1.849 -1.491,-1.849 z"  id="path105843"  inkscape:connector-curvature="0"  style="fill:#7c8081" />
<path  d="m 530.725,164.786 h 0.572 l -0.119,0.646 h 0.016 c 0.387,-0.629 0.912,-0.728 1.4,-0.76 l -0.112,0.604 c -0.406,0.033 -0.777,0.181 -1.046,0.442 -0.242,0.245 -0.415,0.564 -0.481,0.924 l -0.483,2.617 h -0.573 l 0.826,-4.473 z"  id="path105845"  inkscape:connector-curvature="0"  style="fill:#7c8081" />
<path  d="m 535.187,164.672 c 1.325,0 2.141,1.12 1.914,2.347 -0.225,1.219 -1.439,2.348 -2.78,2.348 -1.309,0 -2.128,-1.104 -1.904,-2.314 0.261,-1.416 1.592,-2.381 2.77,-2.381 z m -0.764,4.179 c 0.867,0 1.894,-0.687 2.109,-1.856 0.218,-1.178 -0.663,-1.808 -1.433,-1.808 -0.817,0 -1.89,0.671 -2.109,1.856 -0.191,1.039 0.509,1.808 1.433,1.808 z"  id="path105847"  inkscape:connector-curvature="0"  style="fill:#7c8081" />
<path  d="m 542.103,168.557 c -0.089,0.482 -0.2,1.088 -0.711,1.636 -0.709,0.785 -1.747,0.826 -1.927,0.826 -0.639,0 -1.836,-0.246 -1.987,-1.645 h 0.605 c 0.079,0.368 0.381,1.129 1.469,1.129 0.752,0 1.699,-0.434 1.927,-1.669 l 0.073,-0.393 h -0.017 c -0.453,0.639 -1.242,0.925 -1.896,0.925 -1.178,0 -2.17,-0.916 -1.91,-2.323 0.263,-1.423 1.6,-2.371 2.777,-2.371 0.409,0 1.188,0.122 1.557,0.916 h 0.017 l 0.147,-0.802 h 0.572 l -0.696,3.771 z m -2.37,0.294 c 1.187,0 1.972,-1.063 2.112,-1.823 0.181,-0.981 -0.429,-1.841 -1.436,-1.841 -1.014,0 -1.925,0.859 -2.106,1.841 -0.179,0.972 0.417,1.823 1.43,1.823 z"  id="path105849"  inkscape:connector-curvature="0"  style="fill:#7c8081" />
<path  d="m 543.875,164.786 h 0.572 l -0.119,0.646 h 0.016 c 0.387,-0.629 0.912,-0.728 1.4,-0.76 l -0.112,0.604 c -0.406,0.033 -0.777,0.181 -1.046,0.442 -0.242,0.245 -0.415,0.564 -0.481,0.924 l -0.483,2.617 h -0.573 l 0.826,-4.473 z"  id="path105851"  inkscape:connector-curvature="0"  style="fill:#7c8081" />
<path  d="m 549.894,169.26 h -0.572 l 0.145,-0.785 h -0.017 c -0.626,0.736 -1.44,0.892 -1.906,0.892 -1.407,0 -2.207,-1.071 -1.97,-2.355 0.221,-1.194 1.373,-2.339 2.837,-2.339 0.482,0 1.239,0.155 1.576,0.899 h 0.016 l 0.146,-0.785 h 0.572 l -0.827,4.473 z m -2.256,-0.409 c 0.966,0 1.935,-0.776 2.128,-1.823 0.182,-0.981 -0.42,-1.841 -1.451,-1.841 -0.981,0 -1.963,0.712 -2.173,1.849 -0.185,0.997 0.4,1.815 1.496,1.815 z"  id="path105853"  inkscape:connector-curvature="0"  style="fill:#7c8081" />
<path  d="m 551.762,164.786 h 0.572 l -0.095,0.515 -0.014,-0.016 -0.003,0.016 h 0.017 c 0.335,-0.441 0.918,-0.629 1.335,-0.629 0.376,0 1.138,0.172 1.346,0.858 0.463,-0.687 1.287,-0.858 1.664,-0.858 0.687,0 1.715,0.408 1.435,1.93 l -0.491,2.658 h -0.572 l 0.479,-2.593 c 0.091,-0.49 0.045,-0.728 -0.032,-0.933 -0.129,-0.318 -0.431,-0.548 -0.913,-0.548 -0.482,0 -0.868,0.229 -1.115,0.548 -0.152,0.205 -0.286,0.442 -0.377,0.933 l -0.479,2.593 h -0.572 l 0.479,-2.593 c 0.091,-0.49 0.045,-0.728 -0.032,-0.933 -0.129,-0.318 -0.431,-0.548 -0.913,-0.548 -0.482,0 -0.868,0.229 -1.115,0.548 -0.152,0.205 -0.286,0.442 -0.377,0.933 l -0.479,2.593 h -0.572 l 0.824,-4.474 z"  id="path105855"  inkscape:connector-curvature="0"  style="fill:#7c8081" />
<path  d="m 559.426,164.786 h 0.572 l -0.095,0.515 -0.014,-0.016 -0.003,0.016 h 0.017 c 0.335,-0.441 0.918,-0.629 1.335,-0.629 0.376,0 1.138,0.172 1.346,0.858 0.463,-0.687 1.287,-0.858 1.664,-0.858 0.687,0 1.715,0.408 1.435,1.93 l -0.491,2.658 h -0.572 l 0.479,-2.593 c 0.091,-0.49 0.045,-0.728 -0.032,-0.933 -0.129,-0.318 -0.431,-0.548 -0.913,-0.548 -0.482,0 -0.868,0.229 -1.115,0.548 -0.152,0.205 -0.286,0.442 -0.377,0.933 l -0.479,2.593 h -0.572 l 0.479,-2.593 c 0.091,-0.49 0.045,-0.728 -0.032,-0.933 -0.129,-0.318 -0.431,-0.548 -0.913,-0.548 -0.482,0 -0.868,0.229 -1.115,0.548 -0.152,0.205 -0.286,0.442 -0.377,0.933 l -0.479,2.593 H 558.6 l 0.826,-4.474 z"  id="path105857"  inkscape:connector-curvature="0"  style="fill:#7c8081" />
<path  d="m 567.083,164.786 h 0.572 l -0.826,4.474 h -0.573 l 0.827,-4.474 z m 0.291,-1.579 h 0.572 l -0.19,1.031 h -0.572 l 0.19,-1.031 z"  id="path105859"  inkscape:connector-curvature="0"  style="fill:#7c8081" />
<path  d="m 568.718,164.786 h 0.572 l -0.106,0.572 h 0.017 c 0.222,-0.27 0.74,-0.687 1.501,-0.687 0.548,0 0.98,0.139 1.313,0.548 0.275,0.327 0.401,0.842 0.265,1.578 l -0.454,2.462 h -0.572 l 0.454,-2.462 c 0.107,-0.581 0.003,-0.989 -0.198,-1.227 -0.255,-0.303 -0.649,-0.385 -0.902,-0.385 -0.254,0 -0.678,0.082 -1.045,0.385 -0.289,0.237 -0.544,0.646 -0.644,1.227 l -0.454,2.462 h -0.573 l 0.826,-4.473 z"  id="path105861"  inkscape:connector-curvature="0"  style="fill:#7c8081" />
<path  d="m 577.43,168.557 c -0.089,0.482 -0.2,1.088 -0.711,1.636 -0.709,0.785 -1.747,0.826 -1.927,0.826 -0.639,0 -1.836,-0.246 -1.987,-1.645 h 0.605 c 0.079,0.368 0.381,1.129 1.469,1.129 0.752,0 1.699,-0.434 1.927,-1.669 l 0.073,-0.393 h -0.017 c -0.453,0.639 -1.242,0.925 -1.896,0.925 -1.178,0 -2.17,-0.916 -1.91,-2.323 0.263,-1.423 1.6,-2.371 2.777,-2.371 0.409,0 1.188,0.122 1.557,0.916 h 0.017 l 0.147,-0.802 h 0.572 l -0.696,3.771 z m -2.369,0.294 c 1.187,0 1.972,-1.063 2.112,-1.823 0.181,-0.981 -0.429,-1.841 -1.436,-1.841 -1.014,0 -1.925,0.859 -2.106,1.841 -0.18,0.972 0.416,1.823 1.43,1.823 z"  id="path105863"  inkscape:connector-curvature="0"  style="fill:#7c8081" />
</g>
<g  id="Ocsigen_4_">
<path  d="m 477.512,144.287 c -2.559,0 -4.771,1.037 -6.328,2.697 v -2.457 h -2.316 v 17.15 h 2.316 v -8.92 c 0.139,-3.424 2.904,-6.154 6.361,-6.154 3.492,0 6.363,2.869 6.363,6.396 v 8.678 h 2.316 V 153 c 0.001,-4.91 -4.046,-8.713 -8.712,-8.713 z"  id="path105866"  inkscape:connector-curvature="0"  style="fill:#7c8081" />
<path  d="m 451.982,146.941 c -3.389,3.408 -3.397,8.813 0.037,12.225 2.018,2.004 4.705,2.824 7.268,2.492 v -2.328 c -1.971,0.342 -4.074,-0.258 -5.609,-1.783 -0.955,-0.951 -1.547,-2.123 -1.77,-3.32 l 14.84,-0.07 c 0.309,-2.615 -0.531,-5.352 -2.492,-7.303 -3.483,-3.459 -8.838,-3.372 -12.274,0.087 z m -0.082,4.94 c 0.217,-1.199 0.799,-2.375 1.75,-3.332 2.486,-2.5 6.496,-2.514 8.996,-0.027 0.957,0.951 1.547,2.123 1.771,3.32 l -12.517,0.039 z"  id="path105868"  inkscape:connector-curvature="0"  style="fill:#7c8081" />
<path  d="m 438.619,144.391 c -4.909,0 -8.643,3.838 -8.643,8.713 0,4.805 3.804,8.643 8.643,8.643 2.559,0 4.807,-1.037 6.398,-2.73 v 0.066 c 0,3.527 -2.803,6.328 -6.328,6.328 v 2.316 c 4.84,0 8.643,-3.838 8.643,-8.645 v -6.014 c -0.034,-4.875 -4.079,-8.677 -8.713,-8.677 z m 6.398,8.955 c -0.139,3.387 -2.975,6.084 -6.363,6.084 -3.525,0 -6.362,-2.834 -6.362,-6.361 0,-3.492 2.836,-6.361 6.362,-6.361 3.492,0 6.363,2.869 6.363,6.361 v 0.277 z"  id="path105870"  inkscape:connector-curvature="0"  style="fill:#7c8081" />
<g  id="g105872">
<path  d="m 426.652,143.563 c -1.037,0 -1.971,0.9 -1.971,2.006 0,1.107 0.934,1.971 1.971,1.971 1.107,0 2.006,-0.863 2.006,-1.971 0,-1.106 -0.898,-2.006 -2.006,-2.006 z"  id="path105874"  inkscape:connector-curvature="0"  style="fill:#2ba9e0" />
<rect  x="425.51199"  y="149.396"  width="2.316"  height="12.281"  id="rect105876"  style="fill:#7c8081" />
</g>
<path  d="m 414.689,153 c 0,2.783 -1.783,5.145 -4.291,5.99 l -0.088,-0.088 v 0.119 c -0.612,0.197 -1.266,0.305 -1.948,0.305 v 2.316 c 0.673,0 1.323,-0.08 1.948,-0.221 3.873,-0.871 6.695,-4.285 6.695,-8.422 0,-3.172 2.313,-5.795 5.379,-6.25 v -2.342 c -4.379,0.466 -7.695,4.105 -7.695,8.593 z"  id="path105878"  inkscape:connector-curvature="0"  style="fill:#7c8081" />
<path  d="m 399.879,157.459 c -2.49,-2.488 -2.49,-6.533 0,-8.988 2.488,-2.49 6.5,-2.49 8.988,0 l 0.035,0.033 1.625,-1.658 c -3.285,-3.285 -8.852,-3.459 -12.309,0 -3.389,3.422 -3.389,8.816 0.034,12.273 2.036,2.035 4.769,2.84 7.369,2.449 v -2.365 c -2.017,0.401 -4.201,-0.18 -5.742,-1.744 z"  id="path105880"  inkscape:connector-curvature="0"  style="fill:#7c8081" />
<path  d="m 385.149,144.426 c -4.909,0 -8.644,3.836 -8.644,8.713 0,4.805 3.803,8.643 8.644,8.643 4.875,0 8.713,-3.838 8.713,-8.643 0,-4.91 -4.046,-8.713 -8.713,-8.713 z m 0.035,15.039 c -3.492,0 -6.361,-2.869 -6.361,-6.361 0,-3.527 2.869,-6.363 6.361,-6.363 3.527,0 6.362,2.836 6.362,6.363 0,3.492 -2.835,6.361 -6.362,6.361 z"  id="path105882"  inkscape:connector-curvature="0"  style="fill:#7c8081" />
</g>
</g>
</svg>