<?xml version="1.0" encoding="UTF-8" standalone="no"?> <!-- Generator: Adobe Illustrator 15.0.0, SVG Export Plug-In . SVG Version: 6.00 Build 0) -->  <svg  xmlns:dc="http://purl.org/dc/elements/1.1/"  xmlns:cc="http://creativecommons.org/ns#"  xmlns:rdf="http://www.w3.org/1999/02/22-rdf-syntax-ns#"  xmlns:svg="http://www.w3.org/2000/svg"  xmlns="http://www.w3.org/2000/svg"  xmlns:xlink="http://www.w3.org/1999/xlink"  xmlns:sodipodi="http://sodipodi.sourceforge.net/DTD/sodipodi-0.dtd"  xmlns:inkscape="http://www.inkscape.org/namespaces/inkscape"  version="1.1"  x="0px"  y="0px"  width="216.29601"  height="69.473717"  viewBox="0 0 216.29601 69.473717"  enable-background="new 0 0 801 346"  xml:space="preserve"  id="svg85114"  inkscape:version="0.48.1 r9760"  sodipodi:docname="ocsigenserver-atome.svg">
<metadata  id="metadata126035">
<rdf:RDF>
<cc:Work  rdf:about="">
<dc:format>image/svg+xml</dc:format>
<dc:type  rdf:resource="http://purl.org/dc/dcmitype/StillImage" />
<dc:title>
</dc:title>
</cc:Work>
</rdf:RDF>
</metadata>
<defs  id="defs126033">
<radialGradient  inkscape:collect="always"  xlink:href="#SVGID_2057_"  id="radialGradient139232"  gradientUnits="userSpaceOnUse"  cx="612.85553"  cy="146.4395"  r="127.7163" />
<radialGradient  inkscape:collect="always"  xlink:href="#SVGID_2058_"  id="radialGradient139234"  gradientUnits="userSpaceOnUse"  gradientTransform="matrix(1,0,0,0.9957,0,0.7568)"  cx="612.85638"  cy="145.9771"  r="130.0098" />
<radialGradient  inkscape:collect="always"  xlink:href="#SVGID_2059_"  id="radialGradient139236"  gradientUnits="userSpaceOnUse"  cx="608.87012"  cy="148.1694"  r="124.5814" />
<radialGradient  inkscape:collect="always"  xlink:href="#SVGID_2060_"  id="radialGradient139238"  gradientUnits="userSpaceOnUse"  gradientTransform="matrix(1,0,0,1.0033,0,-0.7063)"  cx="612.85449"  cy="146.03371"  r="130.013" />
<radialGradient  inkscape:collect="always"  xlink:href="#SVGID_2061_"  id="radialGradient139240"  gradientUnits="userSpaceOnUse"  gradientTransform="matrix(1,0,0,0.9961,0,0.5309)"  cx="612.85162"  cy="146.1021"  r="130.00929" />
<radialGradient  inkscape:collect="always"  xlink:href="#SVGID_2062_"  id="radialGradient139242"  gradientUnits="userSpaceOnUse"  gradientTransform="matrix(1,0,0,0.9879,0,2.5696)"  cx="612.85638"  cy="145.1514"  r="130.0127" />
</defs>
<sodipodi:namedview  pagecolor="#ffffff"  bordercolor="#666666"  borderopacity="1"  objecttolerance="10"  gridtolerance="10"  guidetolerance="10"  inkscape:pageopacity="0"  inkscape:pageshadow="2"  inkscape:window-width="1280"  inkscape:window-height="781"  id="namedview126031"  showgrid="false"  inkscape:zoom="0.64169788"  inkscape:cx="161.40717"  inkscape:cy="-277.06391"  inkscape:window-x="0"  inkscape:window-y="19"  inkscape:window-maximized="0"  inkscape:current-layer="svg85114"  fit-margin-top="0"  fit-margin-left="0"  fit-margin-right="0"  fit-margin-bottom="0" />
<g  id="Texte_4_"  display="inline"  style="display:inline"  transform="translate(-376.607,-143.488)">
<g  id="Server_1_">
<radialGradient  id="SVGID_2057_"  cx="612.85553"  cy="146.4395"  r="127.7163"  gradientUnits="userSpaceOnUse">
<stop  offset="0"  style="stop-color:#EE4136"  id="stop118988" />
<stop  offset="1"  style="stop-color:#BE202F"  id="stop118990" />
</radialGradient>
<path  d="m 587.695,174.243 c -10.41,0 -19.434,8.483 -19.434,19.435 v 17.838 h 5.168 v -17.838 c 0,-7.867 6.4,-14.268 14.189,-14.268 1.875,0 3.654,0.366 5.285,1.021 v -5.483 c -1.645,-0.444 -3.38,-0.705 -5.208,-0.705 z"  id="path118992"  inkscape:connector-curvature="0"  style="fill:url(#radialGradient139232)" />
<radialGradient  id="SVGID_2058_"  cx="612.85638"  cy="145.9771"  r="130.0098"  gradientTransform="matrix(1,0,0,0.9957,0,0.7568)"  gradientUnits="userSpaceOnUse">
<stop  offset="0"  style="stop-color:#EE4136"  id="stop118995" />
<stop  offset="1"  style="stop-color:#BE202F"  id="stop118997" />
</radialGradient>
<path  d="m 531.823,180.118 c -7.557,7.57 -7.574,19.569 0.084,27.147 4.5,4.453 10.494,6.274 16.209,5.534 v -5.167 c -4.396,0.756 -9.088,-0.573 -12.512,-3.963 -2.133,-2.11 -3.449,-4.712 -3.949,-7.37 l 33.1,-0.158 c 0.691,-5.811 -1.182,-11.885 -5.559,-16.216 -7.765,-7.685 -19.709,-7.487 -27.373,0.193 z m -0.184,10.218 c 0.482,-2.674 1.783,-5.295 3.902,-7.428 5.545,-5.58 14.488,-5.607 20.066,-0.063 2.135,2.121 3.451,4.734 3.951,7.404 l -27.919,0.087 z"  id="path118999"  inkscape:connector-curvature="0"  style="fill:url(#radialGradient139234)" />
<radialGradient  id="SVGID_2059_"  cx="608.87012"  cy="148.1694"  r="124.5814"  gradientUnits="userSpaceOnUse">
<stop  offset="0"  style="stop-color:#EE4136"  id="stop119002" />
<stop  offset="1"  style="stop-color:#BE202F"  id="stop119004" />
</radialGradient>
<polygon  points="510.051,211.516 514.205,211.516 527.724,175.695 521.5,175.695 512.578,201.016 511.746,201.016 502.441,175.695 496.206,175.695 "  id="polygon119006"  style="fill:url(#radialGradient139236)" />
<radialGradient  id="SVGID_2060_"  cx="612.85449"  cy="146.03371"  r="130.013"  gradientTransform="matrix(1,0,0,1.0033,0,-0.7063)"  gradientUnits="userSpaceOnUse">
<stop  offset="0"  style="stop-color:#EE4136"  id="stop119009" />
<stop  offset="1"  style="stop-color:#BE202F"  id="stop119011" />
</radialGradient>
<path  d="m 488.076,174.259 c -10.41,0 -19.434,8.512 -19.434,19.499 v 18.633 h 5.166 v -18.633 c 0,-7.894 6.402,-14.315 14.189,-14.315 1.875,0 3.656,0.368 5.287,1.024 v -5.502 c -1.645,-0.444 -3.382,-0.706 -5.208,-0.706 z"  id="path119013"  inkscape:connector-curvature="0"  style="fill:url(#radialGradient139238)" />
<radialGradient  id="SVGID_2061_"  cx="612.85162"  cy="146.1021"  r="130.00929"  gradientTransform="matrix(1,0,0,0.9961,0,0.5309)"  gradientUnits="userSpaceOnUse">
<stop  offset="0"  style="stop-color:#EE4136"  id="stop119016" />
<stop  offset="1"  style="stop-color:#BE202F"  id="stop119018" />
</radialGradient>
<path  d="m 432.139,180.104 c -7.557,7.574 -7.574,19.578 0.084,27.159 4.5,4.456 10.494,6.278 16.208,5.539 v -5.17 c -4.396,0.758 -9.088,-0.573 -12.511,-3.965 -2.133,-2.111 -3.449,-4.714 -3.949,-7.374 l 33.099,-0.158 c 0.691,-5.813 -1.182,-11.892 -5.559,-16.224 -7.765,-7.689 -19.708,-7.491 -27.372,0.193 z m -0.184,10.973 c 0.483,-2.664 1.783,-5.274 3.903,-7.399 5.544,-5.558 14.488,-5.585 20.066,-0.062 2.135,2.113 3.451,4.715 3.951,7.375 l -27.92,0.086 z"  id="path119020"  inkscape:connector-curvature="0"  style="fill:url(#radialGradient139240)" />
<radialGradient  id="SVGID_2062_"  cx="612.85638"  cy="145.1514"  r="130.0127"  gradientTransform="matrix(1,0,0,0.9879,0,2.5696)"  gradientUnits="userSpaceOnUse">
<stop  offset="0"  style="stop-color:#EE4136"  id="stop119023" />
<stop  offset="1"  style="stop-color:#BE202F"  id="stop119025" />
</radialGradient>
<path  d="m 422.171,175.403 c -7.233,3.5 -10.9,9.016 -10.9,16.395 v 3.855 c 0,1.59 -0.243,3.005 -0.72,4.198 -2.207,5.192 -6.109,7.821 -11.903,8.029 v 5.077 h 0.553 c 2.726,0 5.357,-0.67 7.838,-1.995 6.204,-3.595 9.351,-8.853 9.351,-15.629 v -3.855 c 0,-3.277 1.155,-6.114 3.415,-8.415 2.076,-1.896 3.968,-3.044 5.577,-3.406 1.307,-0.167 2.135,-0.3 2.662,-0.427 v -5.038 c -1.828,0.04 -3.786,0.433 -5.873,1.211 z"  id="path119027"  inkscape:connector-curvature="0"  style="fill:url(#radialGradient139242)" />
</g>
<g  id="Fresh_air_in_web_programming_2_">
<path  d="m 450.807,165.301 h -0.695 l 0.096,-0.515 h 0.694 c 0.132,-0.622 0.374,-1.669 2.028,-1.685 l -0.098,0.531 c -1.161,0 -1.281,0.736 -1.357,1.153 h 1.145 l -0.096,0.515 h -1.145 l -0.731,3.959 h -0.572 l 0.731,-3.958 z"  id="path119030"  inkscape:connector-curvature="0"  style="fill:#7c8081" />
<path  d="m 453.148,164.786 h 0.572 l -0.119,0.646 h 0.017 c 0.386,-0.629 0.911,-0.728 1.399,-0.76 l -0.111,0.604 c -0.406,0.033 -0.777,0.181 -1.047,0.442 -0.241,0.245 -0.415,0.564 -0.481,0.924 l -0.483,2.617 h -0.572 l 0.825,-4.473 z"  id="path119032"  inkscape:connector-curvature="0"  style="fill:#7c8081" />
<path  d="m 455.492,167.231 c -0.121,0.875 0.561,1.619 1.436,1.619 0.82,-0.017 1.49,-0.499 1.797,-1.055 h 0.605 c -0.475,0.892 -1.459,1.57 -2.49,1.57 -1.251,0 -2.143,-1.015 -1.898,-2.339 0.234,-1.268 1.453,-2.331 2.758,-2.355 0.98,0.008 1.568,0.589 1.784,1.145 0.214,0.482 0.187,0.981 0.082,1.415 h -4.074 z m 3.588,-0.515 c 0.015,-1.055 -0.756,-1.529 -1.468,-1.529 -0.704,0 -1.666,0.475 -2.024,1.529 h 3.492 z"  id="path119034"  inkscape:connector-curvature="0"  style="fill:#7c8081" />
<path  d="m 460.543,167.935 c -0.141,0.851 0.428,0.916 0.633,0.916 0.539,0 0.893,-0.318 0.981,-0.802 0.113,-0.613 -0.417,-0.752 -0.727,-0.891 -0.429,-0.156 -1.112,-0.401 -0.956,-1.243 0.116,-0.63 0.68,-1.243 1.506,-1.243 0.67,0 1.131,0.515 0.992,1.219 H 462.4 c 0.061,-0.549 -0.287,-0.704 -0.541,-0.704 -0.457,0 -0.746,0.368 -0.802,0.671 -0.088,0.475 0.356,0.638 0.663,0.744 0.492,0.172 1.191,0.458 1.021,1.383 -0.134,0.769 -0.713,1.382 -1.662,1.382 -0.621,0 -1.32,-0.426 -1.109,-1.432 h 0.573 z"  id="path119036"  inkscape:connector-curvature="0"  style="fill:#7c8081" />
<path  d="m 464.324,163.207 h 0.572 l -0.396,2.151 h 0.016 c 0.223,-0.27 0.74,-0.687 1.502,-0.687 0.547,0 0.98,0.139 1.313,0.548 0.274,0.327 0.4,0.842 0.265,1.578 l -0.455,2.462 h -0.572 l 0.455,-2.462 c 0.107,-0.581 0.002,-0.989 -0.199,-1.227 -0.255,-0.303 -0.648,-0.385 -0.902,-0.385 -0.254,0 -0.678,0.082 -1.044,0.385 -0.29,0.237 -0.545,0.646 -0.644,1.227 l -0.455,2.462 h -0.572 l 1.116,-6.052 z"  id="path119038"  inkscape:connector-curvature="0"  style="fill:#7c8081" />
<path  d="m 475.027,169.26 h -0.573 l 0.146,-0.785 h -0.017 c -0.627,0.736 -1.44,0.892 -1.907,0.892 -1.406,0 -2.206,-1.071 -1.969,-2.355 0.221,-1.194 1.372,-2.339 2.836,-2.339 0.482,0 1.239,0.155 1.576,0.899 h 0.017 l 0.146,-0.785 h 0.572 l -0.827,4.473 z m -2.256,-0.409 c 0.965,0 1.935,-0.776 2.128,-1.823 0.181,-0.981 -0.421,-1.841 -1.451,-1.841 -0.981,0 -1.964,0.712 -2.174,1.849 -0.184,0.997 0.402,1.815 1.497,1.815 z"  id="path119040"  inkscape:connector-curvature="0"  style="fill:#7c8081" />
<path  d="m 476.887,164.786 h 0.572 l -0.826,4.474 h -0.572 l 0.826,-4.474 z m 0.291,-1.579 h 0.573 l -0.19,1.031 h -0.572 l 0.189,-1.031 z"  id="path119042"  inkscape:connector-curvature="0"  style="fill:#7c8081" />
<path  d="m 478.521,164.786 h 0.572 l -0.119,0.646 h 0.016 c 0.387,-0.629 0.912,-0.728 1.4,-0.76 l -0.111,0.604 c -0.407,0.033 -0.777,0.181 -1.047,0.442 -0.242,0.245 -0.416,0.564 -0.482,0.924 l -0.482,2.617 h -0.572 l 0.825,-4.473 z"  id="path119044"  inkscape:connector-curvature="0"  style="fill:#7c8081" />
<path  d="m 483.244,164.786 h 0.572 l -0.826,4.474 h -0.572 l 0.826,-4.474 z m 0.291,-1.579 h 0.573 l -0.19,1.031 h -0.572 l 0.189,-1.031 z"  id="path119046"  inkscape:connector-curvature="0"  style="fill:#7c8081" />
<path  d="m 484.879,164.786 h 0.572 l -0.105,0.572 h 0.016 c 0.222,-0.27 0.74,-0.687 1.501,-0.687 0.548,0 0.98,0.139 1.313,0.548 0.275,0.327 0.401,0.842 0.266,1.578 l -0.455,2.462 h -0.572 l 0.454,-2.462 c 0.107,-0.581 0.003,-0.989 -0.198,-1.227 -0.256,-0.303 -0.648,-0.385 -0.902,-0.385 -0.254,0 -0.678,0.082 -1.045,0.385 -0.289,0.237 -0.545,0.646 -0.644,1.227 l -0.454,2.462 h -0.572 l 0.825,-4.473 z"  id="path119048"  inkscape:connector-curvature="0"  style="fill:#7c8081" />
<path  d="m 491.701,164.786 h 0.597 l 0.715,3.746 h 0.017 l 1.614,-3.206 h 0.499 l 0.438,3.206 h 0.017 l 2.115,-3.746 h 0.589 l -2.536,4.474 h -0.646 l -0.398,-2.977 h -0.017 l -1.481,2.977 h -0.646 l -0.877,-4.474 z"  id="path119050"  inkscape:connector-curvature="0"  style="fill:#7c8081" />
<path  d="m 498.672,167.231 c -0.121,0.875 0.56,1.619 1.435,1.619 0.821,-0.017 1.491,-0.499 1.798,-1.055 h 0.605 c -0.476,0.892 -1.46,1.57 -2.49,1.57 -1.251,0 -2.144,-1.015 -1.898,-2.339 0.233,-1.268 1.452,-2.331 2.758,-2.355 0.979,0.008 1.567,0.589 1.783,1.145 0.214,0.482 0.188,0.981 0.083,1.415 h -4.074 z m 3.587,-0.515 c 0.016,-1.055 -0.756,-1.529 -1.468,-1.529 -0.703,0 -1.666,0.475 -2.024,1.529 h 3.492 z"  id="path119052"  inkscape:connector-curvature="0"  style="fill:#7c8081" />
<path  d="m 504.382,163.207 h 0.572 l -0.437,2.364 h 0.017 c 0.642,-0.728 1.426,-0.899 1.908,-0.899 1.464,0 2.193,1.145 1.973,2.339 -0.237,1.284 -1.433,2.355 -2.84,2.355 -0.466,0 -1.213,-0.164 -1.577,-0.892 h -0.017 l -0.145,0.785 h -0.573 l 1.119,-6.052 z m 1.966,1.98 c -1.031,0 -1.95,0.859 -2.131,1.841 -0.193,1.047 0.488,1.823 1.454,1.823 1.096,0 1.982,-0.817 2.167,-1.815 0.21,-1.138 -0.509,-1.849 -1.49,-1.849 z"  id="path119054"  inkscape:connector-curvature="0"  style="fill:#7c8081" />
<path  d="m 511.895,164.786 h 0.572 l -0.145,0.785 h 0.017 c 0.65,-0.736 1.426,-0.899 1.908,-0.899 1.464,0 2.192,1.145 1.973,2.339 -0.237,1.284 -1.434,2.355 -2.84,2.355 -0.467,0 -1.213,-0.164 -1.577,-0.892 h -0.017 l -0.436,2.355 h -0.572 l 1.117,-6.043 z m 2.256,0.401 c -1.03,0 -1.949,0.859 -2.131,1.841 -0.193,1.047 0.489,1.823 1.454,1.823 1.096,0 1.983,-0.817 2.168,-1.815 0.211,-1.138 -0.509,-1.849 -1.491,-1.849 z"  id="path119056"  inkscape:connector-curvature="0"  style="fill:#7c8081" />
<path  d="m 517.476,164.786 h 0.572 l -0.119,0.646 h 0.016 c 0.387,-0.629 0.912,-0.728 1.4,-0.76 l -0.112,0.604 c -0.406,0.033 -0.777,0.181 -1.046,0.442 -0.242,0.245 -0.415,0.564 -0.481,0.924 l -0.483,2.617 h -0.573 l 0.826,-4.473 z"  id="path119058"  inkscape:connector-curvature="0"  style="fill:#7c8081" />
<path  d="m 521.938,164.672 c 1.325,0 2.141,1.12 1.914,2.347 -0.225,1.219 -1.439,2.348 -2.78,2.348 -1.309,0 -2.128,-1.104 -1.904,-2.314 0.261,-1.416 1.592,-2.381 2.77,-2.381 z m -0.764,4.179 c 0.867,0 1.894,-0.687 2.109,-1.856 0.218,-1.178 -0.663,-1.808 -1.433,-1.808 -0.817,0 -1.89,0.671 -2.109,1.856 -0.191,1.039 0.509,1.808 1.433,1.808 z"  id="path119060"  inkscape:connector-curvature="0"  style="fill:#7c8081" />
<path  d="m 528.854,168.557 c -0.089,0.482 -0.2,1.088 -0.711,1.636 -0.709,0.785 -1.747,0.826 -1.927,0.826 -0.639,0 -1.836,-0.246 -1.987,-1.645 h 0.605 c 0.079,0.368 0.381,1.129 1.469,1.129 0.752,0 1.699,-0.434 1.927,-1.669 l 0.073,-0.393 h -0.017 c -0.453,0.639 -1.242,0.925 -1.896,0.925 -1.178,0 -2.17,-0.916 -1.91,-2.323 0.263,-1.423 1.6,-2.371 2.777,-2.371 0.409,0 1.188,0.122 1.557,0.916 h 0.017 l 0.147,-0.802 h 0.572 l -0.696,3.771 z m -2.37,0.294 c 1.187,0 1.972,-1.063 2.112,-1.823 0.181,-0.981 -0.429,-1.841 -1.436,-1.841 -1.014,0 -1.925,0.859 -2.106,1.841 -0.179,0.972 0.417,1.823 1.43,1.823 z"  id="path119062"  inkscape:connector-curvature="0"  style="fill:#7c8081" />
<path  d="m 530.626,164.786 h 0.572 l -0.119,0.646 h 0.016 c 0.387,-0.629 0.912,-0.728 1.4,-0.76 l -0.112,0.604 c -0.406,0.033 -0.777,0.181 -1.046,0.442 -0.242,0.245 -0.415,0.564 -0.481,0.924 l -0.483,2.617 H 529.8 l 0.826,-4.473 z"  id="path119064"  inkscape:connector-curvature="0"  style="fill:#7c8081" />
<path  d="m 536.645,169.26 h -0.572 l 0.145,-0.785 H 536.2 c -0.626,0.736 -1.44,0.892 -1.906,0.892 -1.407,0 -2.207,-1.071 -1.97,-2.355 0.221,-1.194 1.373,-2.339 2.837,-2.339 0.482,0 1.239,0.155 1.576,0.899 h 0.016 l 0.146,-0.785 h 0.572 l -0.826,4.473 z m -2.256,-0.409 c 0.966,0 1.935,-0.776 2.128,-1.823 0.182,-0.981 -0.42,-1.841 -1.451,-1.841 -0.981,0 -1.963,0.712 -2.173,1.849 -0.185,0.997 0.4,1.815 1.496,1.815 z"  id="path119066"  inkscape:connector-curvature="0"  style="fill:#7c8081" />
<path  d="m 538.513,164.786 h 0.572 l -0.095,0.515 -0.014,-0.016 -0.003,0.016 h 0.017 c 0.335,-0.441 0.918,-0.629 1.335,-0.629 0.376,0 1.138,0.172 1.346,0.858 0.463,-0.687 1.287,-0.858 1.664,-0.858 0.687,0 1.715,0.408 1.435,1.93 l -0.491,2.658 h -0.572 l 0.479,-2.593 c 0.091,-0.49 0.045,-0.728 -0.032,-0.933 -0.129,-0.318 -0.431,-0.548 -0.913,-0.548 -0.482,0 -0.868,0.229 -1.115,0.548 -0.152,0.205 -0.286,0.442 -0.377,0.933 l -0.479,2.593 h -0.572 l 0.479,-2.593 c 0.091,-0.49 0.045,-0.728 -0.032,-0.933 -0.129,-0.318 -0.431,-0.548 -0.913,-0.548 -0.482,0 -0.868,0.229 -1.115,0.548 -0.152,0.205 -0.286,0.442 -0.377,0.933 l -0.479,2.593 h -0.572 l 0.824,-4.474 z"  id="path119068"  inkscape:connector-curvature="0"  style="fill:#7c8081" />
<path  d="m 546.177,164.786 h 0.572 l -0.095,0.515 -0.014,-0.016 -0.003,0.016 h 0.017 c 0.335,-0.441 0.918,-0.629 1.335,-0.629 0.376,0 1.138,0.172 1.346,0.858 0.463,-0.687 1.287,-0.858 1.664,-0.858 0.687,0 1.715,0.408 1.435,1.93 l -0.491,2.658 h -0.572 l 0.479,-2.593 c 0.091,-0.49 0.045,-0.728 -0.032,-0.933 -0.129,-0.318 -0.431,-0.548 -0.913,-0.548 -0.482,0 -0.868,0.229 -1.115,0.548 -0.152,0.205 -0.286,0.442 -0.377,0.933 l -0.479,2.593 h -0.572 l 0.479,-2.593 c 0.091,-0.49 0.045,-0.728 -0.032,-0.933 -0.129,-0.318 -0.431,-0.548 -0.913,-0.548 -0.482,0 -0.868,0.229 -1.115,0.548 -0.152,0.205 -0.286,0.442 -0.377,0.933 l -0.479,2.593 h -0.572 l 0.824,-4.474 z"  id="path119070"  inkscape:connector-curvature="0"  style="fill:#7c8081" />
<path  d="m 553.834,164.786 h 0.572 l -0.826,4.474 h -0.573 l 0.827,-4.474 z m 0.291,-1.579 h 0.572 l -0.19,1.031 h -0.572 l 0.19,-1.031 z"  id="path119072"  inkscape:connector-curvature="0"  style="fill:#7c8081" />
<path  d="m 555.469,164.786 h 0.572 l -0.106,0.572 h 0.017 c 0.222,-0.27 0.74,-0.687 1.501,-0.687 0.548,0 0.98,0.139 1.313,0.548 0.275,0.327 0.401,0.842 0.265,1.578 l -0.454,2.462 h -0.572 l 0.454,-2.462 c 0.107,-0.581 0.003,-0.989 -0.198,-1.227 -0.255,-0.303 -0.649,-0.385 -0.902,-0.385 -0.254,0 -0.678,0.082 -1.045,0.385 -0.289,0.237 -0.544,0.646 -0.644,1.227 l -0.454,2.462 h -0.573 l 0.826,-4.473 z"  id="path119074"  inkscape:connector-curvature="0"  style="fill:#7c8081" />
<path  d="m 564.181,168.557 c -0.089,0.482 -0.2,1.088 -0.711,1.636 -0.709,0.785 -1.747,0.826 -1.927,0.826 -0.639,0 -1.836,-0.246 -1.987,-1.645 h 0.605 c 0.079,0.368 0.381,1.129 1.469,1.129 0.752,0 1.699,-0.434 1.927,-1.669 l 0.073,-0.393 h -0.017 c -0.453,0.639 -1.242,0.925 -1.896,0.925 -1.178,0 -2.17,-0.916 -1.91,-2.323 0.263,-1.423 1.6,-2.371 2.777,-2.371 0.409,0 1.188,0.122 1.557,0.916 h 0.017 l 0.147,-0.802 h 0.572 l -0.696,3.771 z m -2.369,0.294 c 1.187,0 1.972,-1.063 2.112,-1.823 0.181,-0.981 -0.429,-1.841 -1.436,-1.841 -1.014,0 -1.925,0.859 -2.106,1.841 -0.18,0.972 0.416,1.823 1.43,1.823 z"  id="path119076"  inkscape:connector-curvature="0"  style="fill:#7c8081" />
</g>
<g  id="Ocsigen_3_">
<path  d="m 477.613,144.212 c -2.559,0 -4.771,1.037 -6.328,2.697 v -2.456 h -2.316 v 17.15 h 2.316 v -8.921 c 0.139,-3.423 2.904,-6.154 6.361,-6.154 3.492,0 6.363,2.87 6.363,6.396 v 8.679 h 2.316 v -8.679 c 0.001,-4.909 -4.046,-8.712 -8.712,-8.712 z"  id="path119079"  inkscape:connector-curvature="0"  style="fill:#7c8081" />
<path  d="m 452.084,146.866 c -3.388,3.409 -3.396,8.813 0.037,12.225 2.018,2.005 4.705,2.825 7.268,2.492 v -2.327 c -1.971,0.341 -4.074,-0.258 -5.609,-1.784 -0.955,-0.95 -1.547,-2.122 -1.77,-3.319 l 14.84,-0.07 c 0.309,-2.616 -0.531,-5.353 -2.492,-7.303 -3.483,-3.461 -8.838,-3.372 -12.274,0.086 z m -0.082,4.94 c 0.217,-1.199 0.799,-2.374 1.75,-3.331 2.486,-2.501 6.496,-2.514 8.996,-0.027 0.957,0.95 1.547,2.122 1.771,3.319 l -12.517,0.039 z"  id="path119081"  inkscape:connector-curvature="0"  style="fill:#7c8081" />
<path  d="m 438.721,144.315 c -4.909,0 -8.644,3.838 -8.644,8.713 0,4.806 3.804,8.644 8.644,8.644 2.559,0 4.807,-1.037 6.397,-2.731 v 0.067 c 0,3.526 -2.802,6.327 -6.328,6.327 v 2.316 c 4.841,0 8.644,-3.838 8.644,-8.644 v -6.014 c -0.034,-4.874 -4.079,-8.678 -8.713,-8.678 z m 6.398,8.956 c -0.139,3.388 -2.975,6.085 -6.362,6.085 -3.526,0 -6.362,-2.835 -6.362,-6.361 0,-3.492 2.836,-6.362 6.362,-6.362 3.492,0 6.362,2.87 6.362,6.362 v 0.276 z"  id="path119083"  inkscape:connector-curvature="0"  style="fill:#7c8081" />
<g  id="g119085">
<path  d="m 426.754,143.488 c -1.037,0 -1.971,0.899 -1.971,2.006 0,1.107 0.934,1.971 1.971,1.971 1.107,0 2.006,-0.864 2.006,-1.971 0,-1.107 -0.898,-2.006 -2.006,-2.006 z"  id="path119087"  inkscape:connector-curvature="0"  style="fill:#be202f" />
<rect  x="425.61401"  y="149.321"  width="2.316"  height="12.282"  id="rect119089"  style="fill:#7c8081" />
</g>
<path  d="m 414.792,152.925 c 0,2.784 -1.783,5.146 -4.291,5.99 l -0.088,-0.087 v 0.119 c -0.612,0.196 -1.266,0.305 -1.948,0.305 v 2.316 c 0.673,0 1.323,-0.081 1.948,-0.222 3.873,-0.871 6.695,-4.284 6.695,-8.422 0,-3.172 2.313,-5.794 5.379,-6.25 v -2.342 c -4.38,0.466 -7.695,4.106 -7.695,8.593 z"  id="path119091"  inkscape:connector-curvature="0"  style="fill:#7c8081" />
<path  d="m 399.981,157.385 c -2.49,-2.489 -2.49,-6.534 0,-8.989 2.488,-2.489 6.5,-2.489 8.988,0 l 0.035,0.034 1.625,-1.659 c -3.285,-3.284 -8.852,-3.458 -12.309,0 -3.389,3.423 -3.389,8.816 0.034,12.274 2.036,2.035 4.769,2.839 7.369,2.449 v -2.366 c -2.017,0.401 -4.201,-0.179 -5.742,-1.743 z"  id="path119093"  inkscape:connector-curvature="0"  style="fill:#7c8081" />
<path  d="m 385.251,144.351 c -4.909,0 -8.644,3.837 -8.644,8.713 0,4.806 3.803,8.644 8.644,8.644 4.875,0 8.713,-3.838 8.713,-8.644 0,-4.911 -4.046,-8.713 -8.713,-8.713 z m 0.035,15.04 c -3.492,0 -6.361,-2.87 -6.361,-6.362 0,-3.526 2.869,-6.362 6.361,-6.362 3.527,0 6.362,2.836 6.362,6.362 0,3.492 -2.835,6.362 -6.362,6.362 z"  id="path119095"  inkscape:connector-curvature="0"  style="fill:#7c8081" />
</g>
</g>
</svg>