<?xml version="1.0" encoding="UTF-8" standalone="no"?> <!-- Generator: Adobe Illustrator 15.0.0, SVG Export Plug-In . SVG Version: 6.00 Build 0) -->  <svg  xmlns:dc="http://purl.org/dc/elements/1.1/"  xmlns:cc="http://creativecommons.org/ns#"  xmlns:rdf="http://www.w3.org/1999/02/22-rdf-syntax-ns#"  xmlns:svg="http://www.w3.org/2000/svg"  xmlns="http://www.w3.org/2000/svg"  xmlns:xlink="http://www.w3.org/1999/xlink"  xmlns:sodipodi="http://sodipodi.sourceforge.net/DTD/sodipodi-0.dtd"  xmlns:inkscape="http://www.inkscape.org/namespaces/inkscape"  version="1.1"  x="0px"  y="0px"  width="258.71899"  height="59.022999"  viewBox="0 0 258.71899 59.022999"  enable-background="new 0 0 801 346"  xml:space="preserve"  id="svg85114"  inkscape:version="0.48.1 r9760"  sodipodi:docname="ocsigenserver.svg">
<metadata  id="metadata126035">
<rdf:RDF>
<cc:Work  rdf:about="">
<dc:format>image/svg+xml</dc:format>
<dc:type  rdf:resource="http://purl.org/dc/dcmitype/StillImage" />
<dc:title>
</dc:title>
</cc:Work>
</rdf:RDF>
</metadata>
<defs  id="defs126033">
<linearGradient  inkscape:collect="always"  xlink:href="#SVGID_2265_"  id="linearGradient139457"  gradientUnits="userSpaceOnUse"  x1="668.95898"  y1="182.4604"  x2="420.85709"  y2="231.7988" />
<linearGradient  inkscape:collect="always"  xlink:href="#SVGID_2266_"  id="linearGradient139459"  gradientUnits="userSpaceOnUse"  x1="667.17682"  y1="173.50929"  x2="419.08429"  y2="222.8457" />
<linearGradient  inkscape:collect="always"  xlink:href="#SVGID_2267_"  id="linearGradient139461"  gradientUnits="userSpaceOnUse"  x1="666.80078"  y1="171.6147"  x2="418.70691"  y2="220.95151" />
<linearGradient  inkscape:collect="always"  xlink:href="#SVGID_2268_"  id="linearGradient139463"  gradientUnits="userSpaceOnUse"  x1="665.4707"  y1="165.03661"  x2="417.40869"  y2="214.3671" />
<linearGradient  inkscape:collect="always"  xlink:href="#SVGID_2269_"  id="linearGradient139465"  gradientUnits="userSpaceOnUse"  x1="660.95898"  y1="142.3857"  x2="412.90689"  y2="191.7142" />
<linearGradient  inkscape:collect="always"  xlink:href="#SVGID_2270_"  id="linearGradient139467"  gradientUnits="userSpaceOnUse"  x1="663.37207"  y1="154.38921"  x2="415.28189"  y2="203.7252" />
<linearGradient  inkscape:collect="always"  xlink:href="#SVGID_2271_"  id="linearGradient139469"  gradientUnits="userSpaceOnUse"  x1="662.34082"  y1="149.1694"  x2="414.2442"  y2="198.5067" />
<linearGradient  inkscape:collect="always"  xlink:href="#SVGID_2272_"  id="linearGradient139471"  gradientUnits="userSpaceOnUse"  x1="660.66498"  y1="140.78081"  x2="412.57581"  y2="190.11659" />
<linearGradient  inkscape:collect="always"  xlink:href="#SVGID_2273_"  id="linearGradient139473"  gradientUnits="userSpaceOnUse"  x1="597.3418"  y1="216.6563"  x2="625.42932"  y2="176.54311" />
<linearGradient  inkscape:collect="always"  xlink:href="#SVGID_2274_"  id="linearGradient139475"  gradientUnits="userSpaceOnUse"  x1="555.15332"  y1="209.39059"  x2="578.64722"  y2="175.838" />
<linearGradient  inkscape:collect="always"  xlink:href="#SVGID_2275_"  id="linearGradient139477"  gradientUnits="userSpaceOnUse"  x1="508.96191"  y1="218.8613"  x2="536.85907"  y2="179.0201" />
<linearGradient  inkscape:collect="always"  xlink:href="#SVGID_2276_"  id="linearGradient139479"  gradientUnits="userSpaceOnUse"  x1="485.9082"  y1="210.21291"  x2="501.31201"  y2="188.214" />
<linearGradient  inkscape:collect="always"  xlink:href="#SVGID_2277_"  id="linearGradient139481"  gradientUnits="userSpaceOnUse"  x1="490.3125"  y1="178.9946"  x2="496.9267"  y2="172.38049" />
<linearGradient  inkscape:collect="always"  xlink:href="#SVGID_2278_"  id="linearGradient139483"  gradientUnits="userSpaceOnUse"  x1="452.70609"  y1="215.1982"  x2="482.67911"  y2="172.3923" />
<linearGradient  inkscape:collect="always"  xlink:href="#SVGID_2279_"  id="linearGradient139485"  gradientUnits="userSpaceOnUse"  x1="426.65479"  y1="208.08791"  x2="450.13391"  y2="174.5563" />
<linearGradient  inkscape:collect="always"  xlink:href="#SVGID_2280_"  id="linearGradient139487"  gradientUnits="userSpaceOnUse"  x1="383.97849"  y1="210.2988"  x2="407.46921"  y2="176.7507" />
</defs>
<sodipodi:namedview  pagecolor="#ffffff"  bordercolor="#666666"  borderopacity="1"  objecttolerance="10"  gridtolerance="10"  guidetolerance="10"  inkscape:pageopacity="0"  inkscape:pageshadow="2"  inkscape:window-width="1280"  inkscape:window-height="781"  id="namedview126031"  showgrid="false"  inkscape:zoom="0.64169788"  inkscape:cx="-213.91283"  inkscape:cy="-393.06191"  inkscape:window-x="0"  inkscape:window-y="19"  inkscape:window-maximized="0"  inkscape:current-layer="svg85114"  fit-margin-top="0"  fit-margin-left="0"  fit-margin-right="0"  fit-margin-bottom="0" />
<g  id="Texte_2_"  display="inline"  style="display:inline"  transform="translate(-375.32,-170.979)">
<g  id="Fresh_air_in_web_programming_3_">
<path  d="m 453.953,223.965 h -0.734 l 0.101,-0.545 h 0.733 c 0.14,-0.656 0.396,-1.762 2.145,-1.777 l -0.104,0.561 c -1.226,0 -1.353,0.777 -1.435,1.217 h 1.209 l -0.102,0.545 h -1.209 l -0.775,4.18 h -0.604 l 0.775,-4.181 z"  id="path122368"  inkscape:connector-curvature="0"  style="fill:#7c8081" />
<path  d="m 456.43,223.42 h 0.604 l -0.127,0.684 h 0.018 c 0.408,-0.666 0.963,-0.77 1.479,-0.803 l -0.118,0.639 c -0.43,0.033 -0.822,0.189 -1.105,0.467 -0.256,0.258 -0.439,0.596 -0.51,0.975 l -0.513,2.764 h -0.604 l 0.876,-4.726 z"  id="path122370"  inkscape:connector-curvature="0"  style="fill:#7c8081" />
<path  d="m 458.905,226.004 c -0.128,0.924 0.59,1.709 1.514,1.709 0.867,-0.018 1.575,-0.527 1.899,-1.113 h 0.639 c -0.502,0.941 -1.542,1.658 -2.631,1.658 -1.32,0 -2.262,-1.072 -2.002,-2.471 0.248,-1.338 1.535,-2.461 2.914,-2.486 1.034,0.008 1.654,0.621 1.883,1.209 0.225,0.51 0.196,1.035 0.086,1.494 h -4.302 z m 3.789,-0.545 c 0.017,-1.113 -0.798,-1.615 -1.549,-1.615 -0.743,0 -1.76,0.502 -2.14,1.615 h 3.689 z"  id="path122372"  inkscape:connector-curvature="0"  style="fill:#7c8081" />
<path  d="m 464.244,226.746 c -0.148,0.898 0.451,0.967 0.668,0.967 0.569,0 0.943,-0.336 1.037,-0.846 0.121,-0.648 -0.439,-0.795 -0.767,-0.941 -0.453,-0.164 -1.173,-0.424 -1.009,-1.313 0.123,-0.666 0.719,-1.313 1.592,-1.313 0.707,0 1.193,0.543 1.047,1.285 h -0.604 c 0.063,-0.578 -0.303,-0.742 -0.57,-0.742 -0.484,0 -0.789,0.389 -0.849,0.709 -0.093,0.5 0.376,0.674 0.7,0.785 0.52,0.182 1.258,0.484 1.076,1.459 -0.142,0.813 -0.754,1.461 -1.756,1.461 -0.656,0 -1.394,-0.449 -1.17,-1.512 h 0.605 z"  id="path122374"  inkscape:connector-curvature="0"  style="fill:#7c8081" />
<path  d="m 468.246,221.754 h 0.604 l -0.421,2.271 h 0.017 c 0.234,-0.285 0.782,-0.725 1.585,-0.725 0.579,0 1.035,0.146 1.387,0.578 0.291,0.346 0.423,0.889 0.279,1.666 l -0.482,2.6 h -0.605 l 0.482,-2.6 c 0.114,-0.613 0.004,-1.045 -0.209,-1.295 -0.268,-0.32 -0.684,-0.406 -0.951,-0.406 -0.269,0 -0.717,0.086 -1.104,0.406 -0.306,0.25 -0.576,0.682 -0.682,1.295 l -0.481,2.6 h -0.604 l 1.185,-6.39 z"  id="path122376"  inkscape:connector-curvature="0"  style="fill:#7c8081" />
<path  d="m 479.551,228.145 h -0.605 l 0.154,-0.828 h -0.018 c -0.662,0.777 -1.521,0.941 -2.014,0.941 -1.484,0 -2.329,-1.133 -2.078,-2.488 0.234,-1.26 1.451,-2.469 2.998,-2.469 0.51,0 1.309,0.164 1.664,0.949 h 0.016 l 0.154,-0.83 h 0.605 l -0.876,4.725 z m -2.381,-0.432 c 1.02,0 2.043,-0.82 2.248,-1.926 0.193,-1.037 -0.443,-1.943 -1.531,-1.943 -1.035,0 -2.074,0.752 -2.297,1.951 -0.195,1.055 0.422,1.918 1.58,1.918 z"  id="path122378"  inkscape:connector-curvature="0"  style="fill:#7c8081" />
<path  d="m 481.525,223.42 h 0.604 l -0.875,4.725 h -0.605 l 0.876,-4.725 z m 0.309,-1.666 h 0.605 l -0.203,1.088 h -0.604 l 0.202,-1.088 z"  id="path122380"  inkscape:connector-curvature="0"  style="fill:#7c8081" />
<path  d="m 483.254,223.42 h 0.604 l -0.125,0.684 h 0.016 c 0.41,-0.666 0.965,-0.77 1.48,-0.803 l -0.119,0.639 c -0.43,0.033 -0.82,0.189 -1.105,0.467 -0.256,0.258 -0.439,0.596 -0.51,0.975 l -0.512,2.764 h -0.605 l 0.876,-4.726 z"  id="path122382"  inkscape:connector-curvature="0"  style="fill:#7c8081" />
<path  d="m 488.246,223.42 h 0.605 l -0.877,4.725 h -0.604 l 0.876,-4.725 z m 0.311,-1.666 h 0.604 l -0.201,1.088 h -0.605 l 0.202,-1.088 z"  id="path122384"  inkscape:connector-curvature="0"  style="fill:#7c8081" />
<path  d="m 489.975,223.42 h 0.604 l -0.111,0.605 h 0.018 c 0.234,-0.285 0.781,-0.725 1.586,-0.725 0.578,0 1.035,0.146 1.387,0.578 0.289,0.346 0.422,0.889 0.277,1.666 l -0.482,2.6 h -0.604 l 0.48,-2.6 c 0.115,-0.613 0.004,-1.045 -0.207,-1.295 -0.27,-0.32 -0.686,-0.406 -0.953,-0.406 -0.267,0 -0.715,0.086 -1.104,0.406 -0.305,0.25 -0.576,0.682 -0.68,1.295 l -0.482,2.6 h -0.605 l 0.876,-4.724 z"  id="path122386"  inkscape:connector-curvature="0"  style="fill:#7c8081" />
<path  d="m 497.188,223.42 h 0.631 l 0.752,3.957 h 0.016 l 1.709,-3.387 h 0.525 l 0.461,3.387 h 0.018 l 2.236,-3.957 h 0.621 l -2.68,4.725 h -0.684 l -0.418,-3.143 h -0.018 l -1.568,3.143 h -0.682 l -0.919,-4.725 z"  id="path122388"  inkscape:connector-curvature="0"  style="fill:#7c8081" />
<path  d="m 504.555,226.004 c -0.129,0.924 0.59,1.709 1.514,1.709 0.867,-0.018 1.574,-0.527 1.9,-1.113 h 0.639 c -0.504,0.941 -1.543,1.658 -2.631,1.658 -1.322,0 -2.264,-1.072 -2.004,-2.471 0.248,-1.338 1.537,-2.461 2.914,-2.486 1.035,0.008 1.656,0.621 1.883,1.209 0.227,0.51 0.197,1.035 0.086,1.494 h -4.301 z m 3.789,-0.545 c 0.016,-1.113 -0.797,-1.615 -1.549,-1.615 -0.742,0 -1.76,0.502 -2.139,1.615 h 3.688 z"  id="path122390"  inkscape:connector-curvature="0"  style="fill:#7c8081" />
<path  d="m 510.596,221.754 h 0.605 l -0.465,2.496 h 0.018 c 0.678,-0.77 1.506,-0.949 2.016,-0.949 1.547,0 2.316,1.209 2.082,2.469 -0.252,1.355 -1.516,2.488 -3,2.488 -0.494,0 -1.281,-0.174 -1.666,-0.941 h -0.018 l -0.154,0.828 h -0.604 l 1.186,-6.391 z m 2.074,2.09 c -1.088,0 -2.061,0.906 -2.252,1.943 -0.205,1.105 0.514,1.926 1.533,1.926 1.158,0 2.096,-0.863 2.291,-1.918 0.223,-1.199 -0.537,-1.951 -1.572,-1.951 z"  id="path122392"  inkscape:connector-curvature="0"  style="fill:#7c8081" />
<path  d="m 542.465,223.42 h 0.604 l -0.152,0.83 h 0.018 c 0.688,-0.777 1.506,-0.949 2.016,-0.949 1.545,0 2.314,1.209 2.08,2.469 -0.252,1.355 -1.516,2.488 -3,2.488 -0.492,0 -1.281,-0.174 -1.666,-0.941 h -0.016 l -0.463,2.486 h -0.604 l 1.183,-6.383 z m 2.383,0.424 c -1.088,0 -2.061,0.906 -2.252,1.943 -0.205,1.105 0.516,1.926 1.535,1.926 1.156,0 2.094,-0.863 2.289,-1.918 0.223,-1.199 -0.535,-1.951 -1.572,-1.951 z"  id="path122394"  inkscape:connector-curvature="0"  style="fill:#7c8081" />
<path  d="m 548.365,223.42 h 0.605 l -0.127,0.684 h 0.018 c 0.408,-0.666 0.963,-0.77 1.479,-0.803 l -0.117,0.639 c -0.43,0.033 -0.822,0.189 -1.107,0.467 -0.254,0.258 -0.438,0.596 -0.508,0.975 l -0.514,2.764 h -0.604 l 0.875,-4.726 z"  id="path122396"  inkscape:connector-curvature="0"  style="fill:#7c8081" />
<path  d="m 553.08,223.301 c 1.398,0 2.26,1.182 2.02,2.479 -0.24,1.287 -1.523,2.479 -2.939,2.479 -1.381,0 -2.244,-1.166 -2.008,-2.445 0.277,-1.496 1.683,-2.513 2.927,-2.513 z m -0.81,4.412 c 0.916,0 2,-0.725 2.229,-1.961 0.232,-1.242 -0.699,-1.908 -1.51,-1.908 -0.865,0 -1.998,0.709 -2.23,1.961 -0.204,1.095 0.534,1.908 1.511,1.908 z"  id="path122398"  inkscape:connector-curvature="0"  style="fill:#7c8081" />
<path  d="m 560.387,227.402 c -0.094,0.51 -0.213,1.148 -0.752,1.727 -0.75,0.83 -1.846,0.873 -2.035,0.873 -0.674,0 -1.939,-0.26 -2.096,-1.736 h 0.639 c 0.084,0.389 0.4,1.191 1.549,1.191 0.795,0 1.795,-0.457 2.037,-1.762 l 0.076,-0.414 h -0.016 c -0.48,0.674 -1.313,0.977 -2.004,0.977 -1.244,0 -2.291,-0.969 -2.016,-2.453 0.279,-1.502 1.691,-2.504 2.936,-2.504 0.432,0 1.254,0.129 1.643,0.967 h 0.018 l 0.156,-0.848 h 0.605 l -0.74,3.982 z m -2.5,0.311 c 1.252,0 2.082,-1.123 2.23,-1.926 0.191,-1.037 -0.451,-1.943 -1.514,-1.943 -1.07,0 -2.033,0.906 -2.227,1.943 -0.188,1.027 0.438,1.926 1.511,1.926 z"  id="path122400"  inkscape:connector-curvature="0"  style="fill:#7c8081" />
<path  d="m 562.268,223.42 h 0.604 l -0.125,0.684 h 0.016 c 0.41,-0.666 0.965,-0.77 1.48,-0.803 l -0.119,0.639 c -0.43,0.033 -0.82,0.189 -1.105,0.467 -0.256,0.258 -0.439,0.596 -0.51,0.975 l -0.512,2.764 h -0.605 l 0.876,-4.726 z"  id="path122402"  inkscape:connector-curvature="0"  style="fill:#7c8081" />
<path  d="m 568.623,228.145 h -0.605 l 0.154,-0.828 h -0.018 c -0.662,0.777 -1.521,0.941 -2.014,0.941 -1.486,0 -2.33,-1.133 -2.078,-2.488 0.234,-1.26 1.451,-2.469 2.998,-2.469 0.51,0 1.309,0.164 1.662,0.949 h 0.018 l 0.154,-0.83 h 0.604 l -0.875,4.725 z m -2.381,-0.432 c 1.018,0 2.043,-0.82 2.248,-1.926 0.191,-1.037 -0.443,-1.943 -1.531,-1.943 -1.037,0 -2.074,0.752 -2.297,1.951 -0.195,1.055 0.422,1.918 1.58,1.918 z"  id="path122404"  inkscape:connector-curvature="0"  style="fill:#7c8081" />
<path  d="m 570.605,223.42 h 0.605 l -0.102,0.545 -0.014,-0.018 -0.004,0.018 h 0.018 c 0.355,-0.467 0.971,-0.664 1.41,-0.664 0.398,0 1.201,0.18 1.422,0.906 0.488,-0.727 1.359,-0.906 1.756,-0.906 0.727,0 1.813,0.432 1.514,2.037 l -0.52,2.807 h -0.605 l 0.508,-2.736 c 0.096,-0.52 0.049,-0.77 -0.033,-0.986 -0.137,-0.336 -0.453,-0.578 -0.963,-0.578 -0.51,0 -0.918,0.242 -1.18,0.578 -0.16,0.217 -0.301,0.467 -0.398,0.986 l -0.508,2.736 h -0.604 l 0.508,-2.736 c 0.096,-0.52 0.047,-0.77 -0.033,-0.986 -0.137,-0.336 -0.455,-0.578 -0.963,-0.578 -0.51,0 -0.918,0.242 -1.18,0.578 -0.16,0.217 -0.303,0.467 -0.398,0.986 l -0.508,2.736 h -0.604 l 0.876,-4.725 z"  id="path122406"  inkscape:connector-curvature="0"  style="fill:#7c8081" />
<path  d="m 578.709,223.42 h 0.604 l -0.1,0.545 -0.016,-0.018 -0.002,0.018 h 0.018 c 0.354,-0.467 0.969,-0.664 1.41,-0.664 0.396,0 1.201,0.18 1.42,0.906 0.488,-0.727 1.361,-0.906 1.758,-0.906 0.725,0 1.811,0.432 1.514,2.037 l -0.521,2.807 h -0.604 l 0.508,-2.736 c 0.096,-0.52 0.047,-0.77 -0.033,-0.986 -0.137,-0.336 -0.455,-0.578 -0.965,-0.578 -0.51,0 -0.916,0.242 -1.178,0.578 -0.16,0.217 -0.303,0.467 -0.398,0.986 l -0.508,2.736 h -0.605 l 0.508,-2.736 c 0.098,-0.52 0.049,-0.77 -0.033,-0.986 -0.135,-0.336 -0.453,-0.578 -0.963,-0.578 -0.51,0 -0.918,0.242 -1.178,0.578 -0.162,0.217 -0.303,0.467 -0.398,0.986 l -0.508,2.736 h -0.605 l 0.875,-4.725 z"  id="path122408"  inkscape:connector-curvature="0"  style="fill:#7c8081" />
<path  d="m 586.803,223.42 h 0.605 l -0.877,4.725 h -0.604 l 0.876,-4.725 z m 0.31,-1.666 h 0.604 l -0.201,1.088 h -0.605 l 0.202,-1.088 z"  id="path122410"  inkscape:connector-curvature="0"  style="fill:#7c8081" />
<path  d="m 588.531,223.42 h 0.604 l -0.111,0.605 h 0.018 c 0.234,-0.285 0.781,-0.725 1.586,-0.725 0.578,0 1.035,0.146 1.387,0.578 0.289,0.346 0.422,0.889 0.277,1.666 l -0.482,2.6 h -0.604 l 0.48,-2.6 c 0.115,-0.613 0.004,-1.045 -0.207,-1.295 -0.27,-0.32 -0.686,-0.406 -0.953,-0.406 -0.267,0 -0.715,0.086 -1.104,0.406 -0.305,0.25 -0.576,0.682 -0.68,1.295 l -0.482,2.6 h -0.605 l 0.876,-4.724 z"  id="path122412"  inkscape:connector-curvature="0"  style="fill:#7c8081" />
<path  d="m 597.734,227.402 c -0.094,0.51 -0.213,1.148 -0.752,1.727 -0.75,0.83 -1.846,0.873 -2.037,0.873 -0.674,0 -1.938,-0.26 -2.096,-1.736 h 0.639 c 0.084,0.389 0.402,1.191 1.551,1.191 0.793,0 1.795,-0.457 2.037,-1.762 l 0.076,-0.414 h -0.018 c -0.479,0.674 -1.313,0.977 -2.004,0.977 -1.242,0 -2.289,-0.969 -2.014,-2.453 0.277,-1.502 1.689,-2.504 2.934,-2.504 0.432,0 1.254,0.129 1.643,0.967 h 0.018 l 0.158,-0.848 h 0.604 l -0.739,3.982 z m -2.502,0.311 c 1.252,0 2.082,-1.123 2.232,-1.926 0.191,-1.037 -0.453,-1.943 -1.514,-1.943 -1.072,0 -2.035,0.906 -2.227,1.943 -0.19,1.027 0.439,1.926 1.509,1.926 z"  id="path122414"  inkscape:connector-curvature="0"  style="fill:#7c8081" />
</g>
<g  id="Ocsigen__x28_bleu_x29_">
<linearGradient  id="SVGID_2265_"  gradientUnits="userSpaceOnUse"  x1="668.95898"  y1="182.4604"  x2="420.85709"  y2="231.7988">
<stop  offset="0"  style="stop-color:#00C1F3"  id="stop122418" />
<stop  offset="0.1268"  style="stop-color:#00BBEF"  id="stop122420" />
<stop  offset="0.302"  style="stop-color:#00AFE7"  id="stop122422" />
<stop  offset="0.5054"  style="stop-color:#009DDA"  id="stop122424" />
<stop  offset="0.73"  style="stop-color:#0085C9"  id="stop122426" />
<stop  offset="0.9694"  style="stop-color:#006AB5"  id="stop122428" />
<stop  offset="1"  style="stop-color:#0066B3"  id="stop122430" />
</linearGradient>
<path  d="m 613.494,172.684 c -6.035,0 -11.252,2.446 -14.922,6.359 v -5.789 h -5.463 v 40.439 h 5.463 v -21.035 c 0.326,-8.072 6.85,-14.513 15.002,-14.513 8.234,0 15.002,6.767 15.002,15.083 v 20.464 h 5.463 v -20.464 c 0,-11.576 -9.541,-20.544 -20.545,-20.544 z"  id="path122432"  inkscape:connector-curvature="0"  style="fill:url(#linearGradient139457)" />
<linearGradient  id="SVGID_2266_"  gradientUnits="userSpaceOnUse"  x1="667.17682"  y1="173.50929"  x2="419.08429"  y2="222.8457">
<stop  offset="0"  style="stop-color:#00C1F3"  id="stop122435" />
<stop  offset="0.1268"  style="stop-color:#00BBEF"  id="stop122437" />
<stop  offset="0.302"  style="stop-color:#00AFE7"  id="stop122439" />
<stop  offset="0.5054"  style="stop-color:#009DDA"  id="stop122441" />
<stop  offset="0.73"  style="stop-color:#0085C9"  id="stop122443" />
<stop  offset="0.9694"  style="stop-color:#006AB5"  id="stop122445" />
<stop  offset="1"  style="stop-color:#0066B3"  id="stop122447" />
</linearGradient>
<path  d="m 553.297,178.944 c -7.99,8.038 -8.008,20.778 0.088,28.826 4.758,4.726 11.094,6.662 17.137,5.875 v -5.486 c -4.648,0.803 -9.607,-0.609 -13.227,-4.207 -2.256,-2.241 -3.646,-5.004 -4.176,-7.827 l 34.992,-0.167 c 0.732,-6.169 -1.248,-12.622 -5.877,-17.219 -8.209,-8.16 -20.834,-7.949 -28.937,0.205 z m -0.195,11.645 c 0.512,-2.827 1.885,-5.598 4.127,-7.853 5.861,-5.899 15.316,-5.928 21.213,-0.066 2.256,2.241 3.65,5.004 4.178,7.828 l -29.518,0.091 z"  id="path122449"  inkscape:connector-curvature="0"  style="fill:url(#linearGradient139459)" />
<linearGradient  id="SVGID_2267_"  gradientUnits="userSpaceOnUse"  x1="666.80078"  y1="171.6147"  x2="418.70691"  y2="220.95151">
<stop  offset="0"  style="stop-color:#00C1F3"  id="stop122452" />
<stop  offset="0.1268"  style="stop-color:#00BBEF"  id="stop122454" />
<stop  offset="0.302"  style="stop-color:#00AFE7"  id="stop122456" />
<stop  offset="0.5054"  style="stop-color:#009DDA"  id="stop122458" />
<stop  offset="0.73"  style="stop-color:#0085C9"  id="stop122460" />
<stop  offset="0.9694"  style="stop-color:#006AB5"  id="stop122462" />
<stop  offset="1"  style="stop-color:#0066B3"  id="stop122464" />
</linearGradient>
<path  d="m 521.787,172.928 c -11.578,0 -20.383,9.05 -20.383,20.546 0,11.332 8.969,20.383 20.383,20.383 6.033,0 11.332,-2.447 15.084,-6.443 v 0.158 c 0,8.316 -6.605,14.921 -14.922,14.921 v 5.461 c 11.414,0 20.383,-9.049 20.383,-20.382 v -14.18 c -0.08,-11.495 -9.621,-20.464 -20.545,-20.464 z m 15.084,21.117 c -0.326,7.989 -7.014,14.35 -15.004,14.35 -8.314,0 -15,-6.686 -15,-15.002 0,-8.235 6.686,-15.002 15,-15.002 8.236,0 15.004,6.767 15.004,15.002 v 0.652 z"  id="path122466"  inkscape:connector-curvature="0"  style="fill:url(#linearGradient139461)" />
<g  id="g122468">
<linearGradient  id="SVGID_2268_"  gradientUnits="userSpaceOnUse"  x1="665.4707"  y1="165.03661"  x2="417.40869"  y2="214.3671">
<stop  offset="0"  style="stop-color:#00C1F3"  id="stop122471" />
<stop  offset="0.1268"  style="stop-color:#00BBEF"  id="stop122473" />
<stop  offset="0.302"  style="stop-color:#00AFE7"  id="stop122475" />
<stop  offset="0.5054"  style="stop-color:#009DDA"  id="stop122477" />
<stop  offset="0.73"  style="stop-color:#0085C9"  id="stop122479" />
<stop  offset="0.9694"  style="stop-color:#006AB5"  id="stop122481" />
<stop  offset="1"  style="stop-color:#0066B3"  id="stop122483" />
</linearGradient>
<rect  x="490.879"  y="184.73199"  width="5.461"  height="28.961"  id="rect122485"  style="fill:url(#linearGradient139463)" />
<linearGradient  id="SVGID_2269_"  gradientUnits="userSpaceOnUse"  x1="660.95898"  y1="142.3857"  x2="412.90689"  y2="191.7142">
<stop  offset="0"  style="stop-color:#00C1F3"  id="stop122488" />
<stop  offset="0.1268"  style="stop-color:#00BBEF"  id="stop122490" />
<stop  offset="0.302"  style="stop-color:#00AFE7"  id="stop122492" />
<stop  offset="0.5054"  style="stop-color:#009DDA"  id="stop122494" />
<stop  offset="0.73"  style="stop-color:#0085C9"  id="stop122496" />
<stop  offset="0.9694"  style="stop-color:#006AB5"  id="stop122498" />
<stop  offset="1"  style="stop-color:#0066B3"  id="stop122500" />
</linearGradient>
<path  d="m 493.568,170.979 c -2.445,0 -4.646,2.119 -4.646,4.729 0,2.609 2.201,4.647 4.646,4.647 2.609,0 4.729,-2.039 4.729,-4.647 0,-2.61 -2.119,-4.729 -4.729,-4.729 z"  id="path122502"  inkscape:connector-curvature="0"  style="fill:url(#linearGradient139465)" />
</g>
<linearGradient  id="SVGID_2270_"  gradientUnits="userSpaceOnUse"  x1="663.37207"  y1="154.38921"  x2="415.28189"  y2="203.7252">
<stop  offset="0"  style="stop-color:#00C1F3"  id="stop122505" />
<stop  offset="0.1268"  style="stop-color:#00BBEF"  id="stop122507" />
<stop  offset="0.302"  style="stop-color:#00AFE7"  id="stop122509" />
<stop  offset="0.5054"  style="stop-color:#009DDA"  id="stop122511" />
<stop  offset="0.73"  style="stop-color:#0085C9"  id="stop122513" />
<stop  offset="0.9694"  style="stop-color:#006AB5"  id="stop122515" />
<stop  offset="1"  style="stop-color:#0066B3"  id="stop122517" />
</linearGradient>
<path  d="m 465.359,193.229 c 0,6.565 -4.203,12.132 -10.119,14.126 l -0.205,0.074 c -1.445,0.463 -2.986,0.718 -4.596,0.718 v 5.463 c 1.588,0 3.121,-0.191 4.596,-0.523 9.133,-2.055 15.787,-10.102 15.787,-19.858 0,-7.479 5.453,-13.661 12.682,-14.737 v -5.522 c -10.326,1.095 -18.145,9.679 -18.145,20.259 z"  id="path122519"  inkscape:connector-curvature="0"  style="fill:url(#linearGradient139467)" />
<linearGradient  id="SVGID_2271_"  gradientUnits="userSpaceOnUse"  x1="662.34082"  y1="149.1694"  x2="414.2442"  y2="198.5067">
<stop  offset="0"  style="stop-color:#00C1F3"  id="stop122522" />
<stop  offset="0.1268"  style="stop-color:#00BBEF"  id="stop122524" />
<stop  offset="0.302"  style="stop-color:#00AFE7"  id="stop122526" />
<stop  offset="0.5054"  style="stop-color:#009DDA"  id="stop122528" />
<stop  offset="0.73"  style="stop-color:#0085C9"  id="stop122530" />
<stop  offset="0.9694"  style="stop-color:#006AB5"  id="stop122532" />
<stop  offset="1"  style="stop-color:#0066B3"  id="stop122534" />
</linearGradient>
<path  d="m 430.434,203.747 c -5.87,-5.871 -5.87,-15.409 0,-21.198 5.87,-5.87 15.328,-5.87 21.199,0 l 0.08,0.082 3.832,-3.914 c -7.746,-7.745 -20.871,-8.152 -29.024,0 -7.989,8.072 -7.989,20.79 0.081,28.943 4.801,4.801 11.243,6.694 17.377,5.778 v -5.581 c -4.761,0.946 -9.909,-0.423 -13.545,-4.11 z"  id="path122536"  inkscape:connector-curvature="0"  style="fill:url(#linearGradient139469)" />
<linearGradient  id="SVGID_2272_"  gradientUnits="userSpaceOnUse"  x1="660.66498"  y1="140.78081"  x2="412.57581"  y2="190.11659">
<stop  offset="0"  style="stop-color:#00C1F3"  id="stop122539" />
<stop  offset="0.1268"  style="stop-color:#00BBEF"  id="stop122541" />
<stop  offset="0.302"  style="stop-color:#00AFE7"  id="stop122543" />
<stop  offset="0.5054"  style="stop-color:#009DDA"  id="stop122545" />
<stop  offset="0.73"  style="stop-color:#0085C9"  id="stop122547" />
<stop  offset="0.9694"  style="stop-color:#006AB5"  id="stop122549" />
<stop  offset="1"  style="stop-color:#0066B3"  id="stop122551" />
</linearGradient>
<path  d="m 395.703,173.01 c -11.577,0 -20.383,9.05 -20.383,20.546 0,11.331 8.968,20.381 20.383,20.381 11.496,0 20.545,-9.05 20.545,-20.381 0,-11.578 -9.539,-20.546 -20.545,-20.546 z m 0.082,35.465 c -8.235,0 -15.002,-6.766 -15.002,-15 0,-8.316 6.767,-15.002 15.002,-15.002 8.315,0 15,6.686 15,15.002 0,8.234 -6.684,15 -15,15 z"  id="path122553"  inkscape:connector-curvature="0"  style="fill:url(#linearGradient139471)" />
<g  id="Ocsigen__x28_Ombres_haut_droite_x29_"  display="none"  style="display:none">
<linearGradient  id="SVGID_2273_"  gradientUnits="userSpaceOnUse"  x1="597.3418"  y1="216.6563"  x2="625.42932"  y2="176.54311">
<stop  offset="0.6258"  style="stop-color:#FFFFFF"  id="stop122557" />
<stop  offset="0.8001"  style="stop-color:#FBFBFB"  id="stop122559" />
<stop  offset="0.8629"  style="stop-color:#F1F1F0"  id="stop122561" />
<stop  offset="0.9077"  style="stop-color:#E3E3E3"  id="stop122563" />
<stop  offset="0.9439"  style="stop-color:#D1D2D2"  id="stop122565" />
<stop  offset="0.9745"  style="stop-color:#BDBEBE"  id="stop122567" />
<stop  offset="1"  style="stop-color:#A6A9AA"  id="stop122569" />
</linearGradient>
<path  display="inline"  d="m 613.494,172.684 c -6.035,0 -11.252,2.446 -14.922,6.359 v -5.789 h -5.463 v 40.439 h 5.463 v -21.035 c 0.326,-8.072 6.85,-14.513 15.002,-14.513 8.234,0 15.002,6.767 15.002,15.083 v 20.464 h 5.463 v -20.464 c 0,-11.576 -9.541,-20.544 -20.545,-20.544 z"  id="path122571"  inkscape:connector-curvature="0"  style="fill:url(#linearGradient139473);display:inline" />
<linearGradient  id="SVGID_2274_"  gradientUnits="userSpaceOnUse"  x1="555.15332"  y1="209.39059"  x2="578.64722"  y2="175.838">
<stop  offset="0.6258"  style="stop-color:#FFFFFF"  id="stop122574" />
<stop  offset="0.8001"  style="stop-color:#FBFBFB"  id="stop122576" />
<stop  offset="0.8629"  style="stop-color:#F1F1F0"  id="stop122578" />
<stop  offset="0.9077"  style="stop-color:#E3E3E3"  id="stop122580" />
<stop  offset="0.9439"  style="stop-color:#D1D2D2"  id="stop122582" />
<stop  offset="0.9745"  style="stop-color:#BDBEBE"  id="stop122584" />
<stop  offset="1"  style="stop-color:#A6A9AA"  id="stop122586" />
</linearGradient>
<path  display="inline"  d="m 553.297,178.944 c -7.99,8.038 -8.008,20.778 0.088,28.826 4.758,4.726 11.094,6.662 17.137,5.875 v -5.486 c -4.648,0.803 -9.607,-0.609 -13.227,-4.207 -2.256,-2.241 -3.646,-5.004 -4.176,-7.827 l 34.992,-0.167 c 0.732,-6.169 -1.248,-12.622 -5.877,-17.219 -8.209,-8.16 -20.834,-7.949 -28.937,0.205 z m -0.195,11.645 c 0.512,-2.827 1.885,-5.598 4.127,-7.853 5.861,-5.899 15.316,-5.928 21.213,-0.066 2.256,2.241 3.65,5.004 4.178,7.828 l -29.518,0.091 z"  id="path122588"  inkscape:connector-curvature="0"  style="fill:url(#linearGradient139475);display:inline" />
<linearGradient  id="SVGID_2275_"  gradientUnits="userSpaceOnUse"  x1="508.96191"  y1="218.8613"  x2="536.85907"  y2="179.0201">
<stop  offset="0.6258"  style="stop-color:#FFFFFF"  id="stop122591" />
<stop  offset="0.8001"  style="stop-color:#FBFBFB"  id="stop122593" />
<stop  offset="0.8629"  style="stop-color:#F1F1F0"  id="stop122595" />
<stop  offset="0.9077"  style="stop-color:#E3E3E3"  id="stop122597" />
<stop  offset="0.9439"  style="stop-color:#D1D2D2"  id="stop122599" />
<stop  offset="0.9745"  style="stop-color:#BDBEBE"  id="stop122601" />
<stop  offset="1"  style="stop-color:#A6A9AA"  id="stop122603" />
</linearGradient>
<path  display="inline"  d="m 521.787,172.928 c -11.578,0 -20.383,9.05 -20.383,20.546 0,11.332 8.969,20.383 20.383,20.383 6.033,0 11.332,-2.447 15.084,-6.443 v 0.158 c 0,8.316 -6.605,14.921 -14.922,14.921 v 5.461 c 11.414,0 20.383,-9.049 20.383,-20.382 v -14.18 c -0.08,-11.495 -9.621,-20.464 -20.545,-20.464 z m 15.084,21.117 c -0.326,7.989 -7.014,14.35 -15.004,14.35 -8.314,0 -15,-6.686 -15,-15.002 0,-8.235 6.686,-15.002 15,-15.002 8.236,0 15.004,6.767 15.004,15.002 v 0.652 z"  id="path122605"  inkscape:connector-curvature="0"  style="fill:url(#linearGradient139477);display:inline" />
<g  display="inline"  id="g122607"  style="display:inline">
<linearGradient  id="SVGID_2276_"  gradientUnits="userSpaceOnUse"  x1="485.9082"  y1="210.21291"  x2="501.31201"  y2="188.214">
<stop  offset="0.1411"  style="stop-color:#FFFFFF"  id="stop122610" />
<stop  offset="0.5413"  style="stop-color:#FBFBFB"  id="stop122612" />
<stop  offset="0.6854"  style="stop-color:#F1F1F0"  id="stop122614" />
<stop  offset="0.7882"  style="stop-color:#E3E3E3"  id="stop122616" />
<stop  offset="0.8712"  style="stop-color:#D1D2D2"  id="stop122618" />
<stop  offset="0.9416"  style="stop-color:#BDBEBE"  id="stop122620" />
<stop  offset="1"  style="stop-color:#A6A9AA"  id="stop122622" />
</linearGradient>
<rect  x="490.879"  y="184.73199"  width="5.461"  height="28.961"  id="rect122624"  style="fill:url(#linearGradient139479)" />
<linearGradient  id="SVGID_2277_"  gradientUnits="userSpaceOnUse"  x1="490.3125"  y1="178.9946"  x2="496.9267"  y2="172.38049">
<stop  offset="0.2147"  style="stop-color:#FFFFFF"  id="stop122627" />
<stop  offset="0.5806"  style="stop-color:#FBFBFB"  id="stop122629" />
<stop  offset="0.7124"  style="stop-color:#F1F1F0"  id="stop122631" />
<stop  offset="0.8063"  style="stop-color:#E3E3E3"  id="stop122633" />
<stop  offset="0.8823"  style="stop-color:#D1D2D2"  id="stop122635" />
<stop  offset="0.9466"  style="stop-color:#BDBEBE"  id="stop122637" />
<stop  offset="1"  style="stop-color:#A6A9AA"  id="stop122639" />
</linearGradient>
<path  d="m 493.568,170.979 c -2.445,0 -4.646,2.119 -4.646,4.729 0,2.609 2.201,4.647 4.646,4.647 2.609,0 4.729,-2.039 4.729,-4.647 0,-2.61 -2.119,-4.729 -4.729,-4.729 z"  id="path122641"  inkscape:connector-curvature="0"  style="fill:url(#linearGradient139481)" />
</g>
<linearGradient  id="SVGID_2278_"  gradientUnits="userSpaceOnUse"  x1="452.70609"  y1="215.1982"  x2="482.67911"  y2="172.3923">
<stop  offset="0.2577"  style="stop-color:#FFFFFF"  id="stop122644" />
<stop  offset="0.6036"  style="stop-color:#FBFBFB"  id="stop122646" />
<stop  offset="0.7281"  style="stop-color:#F1F1F0"  id="stop122648" />
<stop  offset="0.8169"  style="stop-color:#E3E3E3"  id="stop122650" />
<stop  offset="0.8887"  style="stop-color:#D1D2D2"  id="stop122652" />
<stop  offset="0.9495"  style="stop-color:#BDBEBE"  id="stop122654" />
<stop  offset="1"  style="stop-color:#A6A9AA"  id="stop122656" />
</linearGradient>
<path  display="inline"  d="m 465.359,193.229 c 0,6.565 -4.203,12.132 -10.119,14.126 l -0.205,0.074 c -1.445,0.463 -2.986,0.718 -4.596,0.718 v 5.463 c 1.588,0 3.121,-0.191 4.596,-0.523 9.133,-2.055 15.787,-10.102 15.787,-19.858 0,-7.479 5.453,-13.661 12.682,-14.737 v -5.522 c -10.326,1.095 -18.145,9.679 -18.145,20.259 z"  id="path122658"  inkscape:connector-curvature="0"  style="fill:url(#linearGradient139483);display:inline" />
<linearGradient  id="SVGID_2279_"  gradientUnits="userSpaceOnUse"  x1="426.65479"  y1="208.08791"  x2="450.13391"  y2="174.5563">
<stop  offset="0.6258"  style="stop-color:#FFFFFF"  id="stop122661" />
<stop  offset="0.8001"  style="stop-color:#FBFBFB"  id="stop122663" />
<stop  offset="0.8629"  style="stop-color:#F1F1F0"  id="stop122665" />
<stop  offset="0.9077"  style="stop-color:#E3E3E3"  id="stop122667" />
<stop  offset="0.9439"  style="stop-color:#D1D2D2"  id="stop122669" />
<stop  offset="0.9745"  style="stop-color:#BDBEBE"  id="stop122671" />
<stop  offset="1"  style="stop-color:#A6A9AA"  id="stop122673" />
</linearGradient>
<path  display="inline"  d="m 430.434,203.747 c -5.87,-5.871 -5.87,-15.409 0,-21.198 5.87,-5.87 15.328,-5.87 21.199,0 l 0.08,0.082 3.832,-3.914 c -7.746,-7.745 -20.871,-8.152 -29.024,0 -7.989,8.072 -7.989,20.79 0.081,28.943 4.801,4.801 11.243,6.694 17.377,5.778 v -5.581 c -4.761,0.946 -9.909,-0.423 -13.545,-4.11 z"  id="path122675"  inkscape:connector-curvature="0"  style="fill:url(#linearGradient139485);display:inline" />
<linearGradient  id="SVGID_2280_"  gradientUnits="userSpaceOnUse"  x1="383.97849"  y1="210.2988"  x2="407.46921"  y2="176.7507">
<stop  offset="0.6258"  style="stop-color:#FFFFFF"  id="stop122678" />
<stop  offset="0.8001"  style="stop-color:#FBFBFB"  id="stop122680" />
<stop  offset="0.8629"  style="stop-color:#F1F1F0"  id="stop122682" />
<stop  offset="0.9077"  style="stop-color:#E3E3E3"  id="stop122684" />
<stop  offset="0.9439"  style="stop-color:#D1D2D2"  id="stop122686" />
<stop  offset="0.9745"  style="stop-color:#BDBEBE"  id="stop122688" />
<stop  offset="1"  style="stop-color:#A6A9AA"  id="stop122690" />
</linearGradient>
<path  display="inline"  d="m 395.703,173.01 c -11.577,0 -20.383,9.05 -20.383,20.546 0,11.331 8.968,20.381 20.383,20.381 11.496,0 20.545,-9.05 20.545,-20.381 0,-11.578 -9.539,-20.546 -20.545,-20.546 z m 0.082,35.465 c -8.235,0 -15.002,-6.766 -15.002,-15 0,-8.316 6.767,-15.002 15.002,-15.002 8.315,0 15,6.686 15,15.002 0,8.234 -6.684,15 -15,15 z"  id="path122692"  inkscape:connector-curvature="0"  style="fill:url(#linearGradient139487);display:inline" />
</g>
</g>
</g>
</svg>