<?xml version="1.0" encoding="UTF-8" standalone="no"?>
<!-- Generator: Adobe Illustrator 15.0.0, SVG Export Plug-In . SVG Version: 6.00 Build 0) -->

<svg
   xmlns:dc="http://purl.org/dc/elements/1.1/"
   xmlns:cc="http://creativecommons.org/ns#"
   xmlns:rdf="http://www.w3.org/1999/02/22-rdf-syntax-ns#"
   xmlns:svg="http://www.w3.org/2000/svg"
   xmlns="http://www.w3.org/2000/svg"
   xmlns:xlink="http://www.w3.org/1999/xlink"
   xmlns:sodipodi="http://sodipodi.sourceforge.net/DTD/sodipodi-0.dtd"
   xmlns:inkscape="http://www.inkscape.org/namespaces/inkscape"
   version="1.1"
   x="0px"
   y="0px"
   width="117.03254"
   height="25.773867"
   viewBox="0 0 109.71801 24.162999"
   enable-background="new 0 0 801 346"
   xml:space="preserve"
   id="svg85114"
   inkscape:version="0.92.1 r15371"
   sodipodi:docname="ocsigen-gray.svg"><metadata
     id="metadata126035"><rdf:RDF><cc:Work
         rdf:about=""><dc:format>image/svg+xml</dc:format><dc:type
           rdf:resource="http://purl.org/dc/dcmitype/StillImage" /><dc:title></dc:title></cc:Work></rdf:RDF></metadata><defs
     id="defs126033"><radialGradient
       inkscape:collect="always"
       xlink:href="#SVGID_2061_"
       id="radialGradient139240"
       gradientUnits="userSpaceOnUse"
       gradientTransform="matrix(1,0,0,0.9961,0,0.5309)"
       cx="612.85162"
       cy="146.1021"
       r="130.00929" /></defs><sodipodi:namedview
     pagecolor="#ffffff"
     bordercolor="#666666"
     borderopacity="1"
     objecttolerance="10"
     gridtolerance="10"
     guidetolerance="10"
     inkscape:pageopacity="0"
     inkscape:pageshadow="2"
     inkscape:window-width="2994"
     inkscape:window-height="1657"
     id="namedview126031"
     showgrid="false"
     inkscape:zoom="5.133583"
     inkscape:cx="34.954776"
     inkscape:cy="-20.485761"
     inkscape:window-x="0"
     inkscape:window-y="19"
     inkscape:window-maximized="0"
     inkscape:current-layer="g119085"
     fit-margin-top="0"
     fit-margin-left="0"
     fit-margin-right="0"
     fit-margin-bottom="0" /><g
     id="Texte_4_"
     display="inline"
     style="display:inline"
     transform="translate(-376.607,-143.488)"><g
       id="Server_1_"><radialGradient
         id="SVGID_2057_"
         cx="612.85553"
         cy="146.4395"
         r="127.7163"
         gradientUnits="userSpaceOnUse"><stop
           offset="0"
           style="stop-color:#EE4136"
           id="stop118988" /><stop
           offset="1"
           style="stop-color:#BE202F"
           id="stop118990" /></radialGradient><radialGradient
         id="SVGID_2058_"
         cx="612.85638"
         cy="145.9771"
         r="130.0098"
         gradientTransform="matrix(1,0,0,0.9957,0,0.7568)"
         gradientUnits="userSpaceOnUse"><stop
           offset="0"
           style="stop-color:#EE4136"
           id="stop118995" /><stop
           offset="1"
           style="stop-color:#BE202F"
           id="stop118997" /></radialGradient><radialGradient
         id="SVGID_2059_"
         cx="608.87012"
         cy="148.1694"
         r="124.5814"
         gradientUnits="userSpaceOnUse"><stop
           offset="0"
           style="stop-color:#EE4136"
           id="stop119002" /><stop
           offset="1"
           style="stop-color:#BE202F"
           id="stop119004" /></radialGradient><radialGradient
         id="SVGID_2060_"
         cx="612.85449"
         cy="146.03371"
         r="130.013"
         gradientTransform="matrix(1,0,0,1.0033,0,-0.7063)"
         gradientUnits="userSpaceOnUse"><stop
           offset="0"
           style="stop-color:#EE4136"
           id="stop119009" /><stop
           offset="1"
           style="stop-color:#BE202F"
           id="stop119011" /></radialGradient><radialGradient
         id="SVGID_2061_"
         cx="612.85162"
         cy="146.1021"
         r="130.00929"
         gradientTransform="matrix(1,0,0,0.9961,0,0.5309)"
         gradientUnits="userSpaceOnUse"><stop
           offset="0"
           style="stop-color:#EE4136"
           id="stop119016" /><stop
           offset="1"
           style="stop-color:#BE202F"
           id="stop119018" /></radialGradient><radialGradient
         id="SVGID_2062_"
         cx="612.85638"
         cy="145.1514"
         r="130.0127"
         gradientTransform="matrix(1,0,0,0.9879,0,2.5696)"
         gradientUnits="userSpaceOnUse"><stop
           offset="0"
           style="stop-color:#EE4136"
           id="stop119023" /><stop
           offset="1"
           style="stop-color:#BE202F"
           id="stop119025" /></radialGradient></g><g
       id="Ocsigen_3_"><path
         d="m 477.613,144.212 c -2.559,0 -4.771,1.037 -6.328,2.697 v -2.456 h -2.316 v 17.15 h 2.316 v -8.921 c 0.139,-3.423 2.904,-6.154 6.361,-6.154 3.492,0 6.363,2.87 6.363,6.396 v 8.679 h 2.316 v -8.679 c 0.001,-4.909 -4.046,-8.712 -8.712,-8.712 z"
         id="path119079"
         inkscape:connector-curvature="0"
         style="fill:#7c8081" /><path
         d="m 452.084,146.866 c -3.388,3.409 -3.396,8.813 0.037,12.225 2.018,2.005 4.705,2.825 7.268,2.492 v -2.327 c -1.971,0.341 -4.074,-0.258 -5.609,-1.784 -0.955,-0.95 -1.547,-2.122 -1.77,-3.319 l 14.84,-0.07 c 0.309,-2.616 -0.531,-5.353 -2.492,-7.303 -3.483,-3.461 -8.838,-3.372 -12.274,0.086 z m -0.082,4.94 c 0.217,-1.199 0.799,-2.374 1.75,-3.331 2.486,-2.501 6.496,-2.514 8.996,-0.027 0.957,0.95 1.547,2.122 1.771,3.319 z"
         id="path119081"
         inkscape:connector-curvature="0"
         style="fill:#7c8081" /><path
         d="m 438.721,144.315 c -4.909,0 -8.644,3.838 -8.644,8.713 0,4.806 3.804,8.644 8.644,8.644 2.559,0 4.807,-1.037 6.397,-2.731 v 0.067 c 0,3.526 -2.802,6.327 -6.328,6.327 v 2.316 c 4.841,0 8.644,-3.838 8.644,-8.644 v -6.014 c -0.034,-4.874 -4.079,-8.678 -8.713,-8.678 z m 6.398,8.956 c -0.139,3.388 -2.975,6.085 -6.362,6.085 -3.526,0 -6.362,-2.835 -6.362,-6.361 0,-3.492 2.836,-6.362 6.362,-6.362 3.492,0 6.362,2.87 6.362,6.362 z"
         id="path119083"
         inkscape:connector-curvature="0"
         style="fill:#7c8081" /><g
         id="g119085"><path
           d="m 426.754,143.488 c -1.037,0 -1.971,0.899 -1.971,2.006 0,1.107 0.934,1.971 1.971,1.971 1.107,0 2.006,-0.864 2.006,-1.971 0,-1.107 -0.898,-2.006 -2.006,-2.006 z"
           id="path119087"
           inkscape:connector-curvature="0"
           style="fill:#808080" /><rect
           x="425.61401"
           y="149.321"
           width="2.316"
           height="12.282"
           id="rect119089"
           style="fill:#7c8081" /></g><path
         d="m 414.792,152.925 c 0,2.784 -1.783,5.146 -4.291,5.99 l -0.088,-0.087 v 0.119 c -0.612,0.196 -1.266,0.305 -1.948,0.305 v 2.316 c 0.673,0 1.323,-0.081 1.948,-0.222 3.873,-0.871 6.695,-4.284 6.695,-8.422 0,-3.172 2.313,-5.794 5.379,-6.25 v -2.342 c -4.38,0.466 -7.695,4.106 -7.695,8.593 z"
         id="path119091"
         inkscape:connector-curvature="0"
         style="fill:#7c8081" /><path
         d="m 399.981,157.385 c -2.49,-2.489 -2.49,-6.534 0,-8.989 2.488,-2.489 6.5,-2.489 8.988,0 l 0.035,0.034 1.625,-1.659 c -3.285,-3.284 -8.852,-3.458 -12.309,0 -3.389,3.423 -3.389,8.816 0.034,12.274 2.036,2.035 4.769,2.839 7.369,2.449 v -2.366 c -2.017,0.401 -4.201,-0.179 -5.742,-1.743 z"
         id="path119093"
         inkscape:connector-curvature="0"
         style="fill:#7c8081" /><path
         d="m 385.251,144.351 c -4.909,0 -8.644,3.837 -8.644,8.713 0,4.806 3.803,8.644 8.644,8.644 4.875,0 8.713,-3.838 8.713,-8.644 0,-4.911 -4.046,-8.713 -8.713,-8.713 z m 0.035,15.04 c -3.492,0 -6.361,-2.87 -6.361,-6.362 0,-3.526 2.869,-6.362 6.361,-6.362 3.527,0 6.362,2.836 6.362,6.362 0,3.492 -2.835,6.362 -6.362,6.362 z"
         id="path119095"
         inkscape:connector-curvature="0"
         style="fill:#7c8081" /></g></g></svg>