<?xml version="1.0" encoding="UTF-8" standalone="no"?>
<!-- Generator: Adobe Illustrator 15.0.0, SVG Export Plug-In . SVG Version: 6.00 Build 0) -->

<svg
   xmlns:dc="http://purl.org/dc/elements/1.1/"
   xmlns:cc="http://creativecommons.org/ns#"
   xmlns:rdf="http://www.w3.org/1999/02/22-rdf-syntax-ns#"
   xmlns:svg="http://www.w3.org/2000/svg"
   xmlns="http://www.w3.org/2000/svg"
   xmlns:xlink="http://www.w3.org/1999/xlink"
   xmlns:sodipodi="http://sodipodi.sourceforge.net/DTD/sodipodi-0.dtd"
   xmlns:inkscape="http://www.inkscape.org/namespaces/inkscape"
   version="1.1"
   x="0px"
   y="0px"
   width="228.04784"
   height="62.75"
   viewBox="0 0 228.04784 62.75"
   enable-background="new 0 0 801 346"
   xml:space="preserve"
   id="svg85114"
   inkscape:version="0.48.1 r9760"
   sodipodi:docname="tyxml.svg">
<metadata
   id="metadata126035">
<rdf:RDF>
<cc:Work
   rdf:about="">
<dc:format>image/svg+xml</dc:format>
<dc:type
   rdf:resource="http://purl.org/dc/dcmitype/StillImage" />
<dc:title>
</dc:title>
</cc:Work>
</rdf:RDF>
</metadata>
<defs
   id="defs126033">
<linearGradient
   inkscape:collect="always"
   xlink:href="#SVGID_1043_"
   id="linearGradient126589"
   gradientUnits="userSpaceOnUse"
   x1="609.86133"
   y1="194.69479"
   x2="411.27151"
   y2="194.69479" />
<linearGradient
   inkscape:collect="always"
   xlink:href="#SVGID_1044_"
   id="linearGradient126591"
   gradientUnits="userSpaceOnUse"
   x1="609.86133"
   y1="194.69479"
   x2="411.27151"
   y2="194.69479" />
<linearGradient
   inkscape:collect="always"
   xlink:href="#SVGID_1045_"
   id="linearGradient126593"
   gradientUnits="userSpaceOnUse"
   x1="609.86133"
   y1="194.69479"
   x2="411.27151"
   y2="194.69479" />
<linearGradient
   inkscape:collect="always"
   xlink:href="#SVGID_1046_"
   id="linearGradient126595"
   gradientUnits="userSpaceOnUse"
   x1="609.86133"
   y1="194.69479"
   x2="411.27151"
   y2="194.69479" />
<linearGradient
   inkscape:collect="always"
   xlink:href="#SVGID_1047_"
   id="linearGradient126597"
   gradientUnits="userSpaceOnUse"
   x1="609.86133"
   y1="194.69479"
   x2="411.27151"
   y2="194.69479" />




<linearGradient
   inkscape:collect="always"
   xlink:href="#SVGID_1043_"
   id="linearGradient4430"
   gradientUnits="userSpaceOnUse"
   x1="609.86133"
   y1="194.69479"
   x2="411.27151"
   y2="194.69479" /><linearGradient
   inkscape:collect="always"
   xlink:href="#SVGID_1044_"
   id="linearGradient4432"
   gradientUnits="userSpaceOnUse"
   x1="609.86133"
   y1="194.69479"
   x2="411.27151"
   y2="194.69479" /><linearGradient
   inkscape:collect="always"
   xlink:href="#SVGID_1045_"
   id="linearGradient4434"
   gradientUnits="userSpaceOnUse"
   x1="609.86133"
   y1="194.69479"
   x2="411.27151"
   y2="194.69479" /><linearGradient
   inkscape:collect="always"
   xlink:href="#SVGID_1046_"
   id="linearGradient4436"
   gradientUnits="userSpaceOnUse"
   x1="609.86133"
   y1="194.69479"
   x2="411.27151"
   y2="194.69479" /><linearGradient
   inkscape:collect="always"
   xlink:href="#SVGID_1047_"
   id="linearGradient4438"
   gradientUnits="userSpaceOnUse"
   x1="609.86133"
   y1="194.69479"
   x2="411.27151"
   y2="194.69479" />


<linearGradient
   inkscape:collect="always"
   xlink:href="#SVGID_1043_"
   id="linearGradient4492"
   gradientUnits="userSpaceOnUse"
   x1="609.86133"
   y1="194.69479"
   x2="411.27151"
   y2="194.69479" /><linearGradient
   inkscape:collect="always"
   xlink:href="#SVGID_1044_"
   id="linearGradient4494"
   gradientUnits="userSpaceOnUse"
   x1="609.86133"
   y1="194.69479"
   x2="411.27151"
   y2="194.69479" /><linearGradient
   inkscape:collect="always"
   xlink:href="#SVGID_1045_"
   id="linearGradient4496"
   gradientUnits="userSpaceOnUse"
   x1="609.86133"
   y1="194.69479"
   x2="411.27151"
   y2="194.69479" /><linearGradient
   inkscape:collect="always"
   xlink:href="#SVGID_1046_"
   id="linearGradient4498"
   gradientUnits="userSpaceOnUse"
   x1="609.86133"
   y1="194.69479"
   x2="411.27151"
   y2="194.69479" /><linearGradient
   inkscape:collect="always"
   xlink:href="#SVGID_1047_"
   id="linearGradient4500"
   gradientUnits="userSpaceOnUse"
   x1="609.86133"
   y1="194.69479"
   x2="411.27151"
   y2="194.69479" />





</defs>
<sodipodi:namedview
   pagecolor="#ffffff"
   bordercolor="#666666"
   borderopacity="1"
   objecttolerance="10"
   gridtolerance="10"
   guidetolerance="10"
   inkscape:pageopacity="0"
   inkscape:pageshadow="2"
   inkscape:window-width="1280"
   inkscape:window-height="781"
   id="namedview126031"
   showgrid="false"
   inkscape:zoom="2.5667915"
   inkscape:cx="123.50492"
   inkscape:cy="4.4159976"
   inkscape:window-x="0"
   inkscape:window-y="19"
   inkscape:window-maximized="0"
   inkscape:current-layer="svg85114"
   fit-margin-top="0"
   fit-margin-left="0"
   fit-margin-right="0"
   fit-margin-bottom="0" />
<path
   style="fill:#7c8081"
   inkscape:connector-curvature="0"
   id="path102374"
   d="m 198.59,49.638998 v -4.793 c -6.223,-0.068 -13.615,-2.512 -13.615,-13.732 V 0.00199837 h -5.389 V 30.980998 c 0,11.644 7.102,18.611 19.004,18.658 z" /><path
   style="fill:#7c8081"
   inkscape:connector-curvature="0"
   id="path102376"
   d="m 110.77,29.280998 c 0.301,-7.416 6.295,-13.336 13.787,-13.336 7.344,0 13.486,5.92 13.787,13.336 l -0.053,18.917 h 5.079 l -0.007,-18.917 c 0.301,-7.416 6.295,-13.336 13.787,-13.336 7.566,0 13.787,6.219 13.787,13.861 l 0.041,18.392 h 4.979 v -18.392 c 0,-10.639 -8.766,-18.881 -18.881,-18.881 -7.119,0 -13.113,3.746 -16.336,9.365 -3.297,-5.619 -9.514,-9.365 -16.258,-9.365 -5.545,0 -10.34,2.248 -13.713,5.844 v -4.392 h -5.02 v 35.82 h 5.02 v -18.916 z" /><polygon
   style="fill:#7c8081"
   id="polygon102378"
   points="475.881,179.414 490.264,193.523 475.699,207.812 479.383,211.426 493.949,197.138 508.605,211.516 512.289,207.9 497.633,193.523 512.107,179.326 508.422,175.71 493.949,189.909 479.566,175.8 "
   transform="translate(-411.271,-163.318)" /><path
   style="fill:#7c8081"
   inkscape:connector-curvature="0"
   id="path102380"
   d="m 61.149,12.376998 h -5.291 l 0.001,18.349 c -0.076,1.896 -0.516,3.697 -1.25,5.334 -2.28,4.838 -7.229,8.188 -12.865,8.188 -5.913,0 -10.954,-3.577 -13.092,-8.692 -0.665,-1.66 -1.037,-3.471 -1.037,-5.371 l 0,-17.808 h -5.303 l 0,17.808 c 0,10.951 9.023,19.434 19.434,19.434 5.707,0 10.643,-2.313 14.113,-6.016 v -0.211 c 0.023,-0.023 0.051,-0.045 0.074,-0.07 v 0.148 c 0,7.868 -6.246,14.114 -14.113,14.114 v 5.166 c 10.797,0 19.278,-8.559 19.278,-19.28 v -4.391 h 0.051 v -26.702 z" /><path
   style="fill:#7c8081"
   inkscape:connector-curvature="0"
   id="path102382"
   d="M 0,5.4489984 H 5.104 L 5.095,12.377998 h 13.634 v 5.02 H 5.094 l -0.075,13.587 c 0,7.492 6.068,13.635 13.71,13.635 v 5.02 C 8.241,49.639998 0,41.322998 0,30.984998 V 5.4489984 z" />
<rect
   style="fill:#808000;fill-opacity:1;stroke:#808080;stroke-width:0;stroke-miterlimit:4;stroke-opacity:1;stroke-dasharray:none;stroke-dashoffset:0"
   id="rect4509"
   width="16.362841"
   height="62.75"
   x="211.685"
   y="0" /></svg>